<svg xmlns="http://www.w3.org/2000/svg" version="1.1" xmlns:xlink="http://www.w3.org/1999/xlink" xmlns:svgjs="http://svgjs.dev/svgjs" viewBox="0 0 800 800" opacity="0.61"><defs><filter id="bbburst-blur-1" x="-100%" y="-100%" width="400%" height="400%"><feGaussianBlur in="SourceGraphic" stdDeviation="1"></feGaussianBlur></filter><filter id="bbburst-blur-2" x="-100%" y="-100%" width="400%" height="400%"><feGaussianBlur in="SourceGraphic" stdDeviation="2"></feGaussianBlur></filter><filter id="bbburst-blur-3" x="-100%" y="-100%" width="400%" height="400%"><feGaussianBlur in="SourceGraphic" stdDeviation="4"></feGaussianBlur></filter><filter id="bbburst-blur-4" x="-100%" y="-100%" width="400%" height="400%"><feGaussianBlur in="SourceGraphic" stdDeviation="12"></feGaussianBlur></filter><symbol id="bbburst-shape-1" viewBox="0 0 194 167"><path d="m97 0 96.129 166.5H.871L97 0Z"></path></symbol><symbol id="bbburst-shape-4" viewBox="0 0 149 143"><path d="M71.647 2.781c.898-2.764 4.808-2.764 5.706 0l15.445 47.534a3 3 0 0 0 2.853 2.073h49.98c2.906 0 4.115 3.719 1.764 5.427L106.96 87.193a2.999 2.999 0 0 0-1.09 3.354l15.445 47.534c.898 2.764-2.266 5.062-4.617 3.354l-40.435-29.378a3 3 0 0 0-3.526 0l-40.435 29.378c-2.351 1.708-5.515-.59-4.617-3.354L43.13 90.547a3 3 0 0 0-1.09-3.354L1.605 57.815c-2.35-1.708-1.142-5.427 1.764-5.427h49.98a3 3 0 0 0 2.853-2.073L71.647 2.781Z"></path></symbol><symbol id="bbburst-shape-6" viewBox="0 0 133 116"><path d="M59.7487 10.2513c-13.6683-13.66839-35.8291-13.66839-49.4974 0-13.66839 13.6683-13.66839 35.8291 0 49.4974l49.4974-49.4974ZM66.5 66.5 41.7513 91.2487 66.5 115.997l24.7487-24.7483L66.5 66.5Zm56.249-6.7513c13.668-13.6683 13.668-35.8291 0-49.4974-13.669-13.66839-35.8294-13.66839-49.4977 0l49.4977 49.4974Zm-112.4977 0 31.5 31.5 49.4974-49.4974-31.5-31.5-49.4974 49.4974Zm80.9974 31.5 31.5003-31.5-49.4977-49.4974-31.5 31.5 49.4974 49.4974Z"></path></symbol><symbol id="bbburst-shape-7" viewBox="0 0 139 124"><path fill-rule="evenodd" clip-rule="evenodd" d="M70.1641 15.0917C54.6093.764854 37.8293-2.10782 24.4032 2.82615 10.3804 7.97941.763366 21.4591 1.00047 37.0608c.1068 7.0273 2.86132 13.7317 7.0039 20.2001C12.1442 63.7249 17.853 70.2322 24.25 76.9024c3.8209 3.9842 7.8871 8.0312 12.0767 12.201h.0001c10.0335 9.9862 20.7748 20.6766 30.5497 32.8956 1.38 1.725 3.8972 2.005 5.6223.624.6706-.536 1.1228-1.244 1.3439-2.011 9.5768-11.748 20.0328-22.0735 29.8163-31.7351 4.19-4.1373 8.256-8.1528 12.078-12.1062 6.396-6.6176 12.106-13.0752 16.247-19.4911 4.144-6.4196 6.905-13.0811 7.012-20.0691.237-15.5124-9.399-28.8902-23.411-33.99923-13.32-4.85681-29.9542-2.08621-45.4209 11.88043Zm-3.7351 7.4919C52.1278 8.44857 37.6826 6.46918 27.1626 10.3352 16.2859 14.3323 8.8148 24.7824 8.99955 36.9392c.07575 4.9844 2.03755 10.2234 5.74165 16.0072 3.707 5.7881 8.9752 11.8418 15.2827 18.4187 3.5798 3.7328 7.4978 7.6329 11.6 11.7163 9.0476 9.0063 18.9911 18.9046 28.1786 29.8666 9.2999-11.068 19.4036-21.0473 28.5839-30.1144l.0007-.0006c4.1019-4.0508 8.0189-7.9196 11.5979-11.6222 6.307-6.5252 11.573-12.5298 15.278-18.2697 3.703-5.7362 5.658-10.924 5.734-15.8531.184-12.0276-7.267-22.3914-18.153-26.3608-10.71-3.90518-25.4722-1.80041-40.0023 12.867-1.5547 1.5694-4.0874 1.5813-5.6568.0265-.3146-.3116-.5666-.6625-.7559-1.0371Z"></path></symbol><symbol id="bbburst-shape-8" viewBox="0 0 87 168"><path d="m12 12 31.2546 18.0749c16.4102 9.4902 20.014 31.6325 7.4603 45.8369L36.3296 92.1884c-12.5684 14.2206-8.9394 36.3916 7.5068 45.8636L75 156" stroke-width="14" stroke-linecap="round" stroke-linejoin="round"></path></symbol><symbol id="bbburst-shape-10" viewBox="0 0 145 145"><circle cx="72.5" cy="72.5" r="61.5" fill="none" stroke-width="22"></circle></symbol><symbol id="bbburst-shape-11" viewBox="0 0 194 167"><path d="M10.398 161 97 11l86.603 150H10.397Z" stroke-width="11"></path></symbol></defs><use xlink:href="#bbburst-shape-8" width="36.170267023941285" opacity="0.43593569183448033" transform="matrix(0.9891758330395857,-0.14673503784182443,0.14673503784182443,0.9891758330395857,431.7752416839648,236.5210423367298)" fill="none" stroke="#2c2891" filter="url(#bbburst-blur-2)"></use><use xlink:href="#bbburst-shape-10" width="18.64623151228121" opacity="0.5936099886997696" transform="matrix(0.999345032238568,-0.03618710461055784,0.03618710461055784,0.999345032238568,230.41508338562886,110.99785896988567)" fill="none" stroke="#ff5c58" filter="url(#bbburst-blur-1)"></use><use xlink:href="#bbburst-shape-6" width="38.769529068440875" opacity="0.2826455369437372" transform="matrix(1.1467975637262737,-0.4973483164055985,0.4973483164055985,1.1467975637262737,361.20649731083694,217.27743901325232)" fill="#00a19d" filter="url(#bbburst-blur-3)"></use><use xlink:href="#bbburst-shape-6" width="30.81231624633096" opacity="0.31654087407802234" transform="matrix(1.166742891170045,0.4485655201909352,-0.4485655201909352,1.166742891170045,308.103605354665,100.76616893009248)" fill="#406343" filter="url(#bbburst-blur-3)"></use><use xlink:href="#bbburst-shape-10" width="44.505571472349104" opacity="0.28094505752029353" transform="matrix(1.1182005192048357,0.5586838093680861,-0.5586838093680861,1.1182005192048357,410.7104994628357,203.729600814433)" fill="none" stroke="#2c2891" filter="url(#bbburst-blur-3)"></use><use xlink:href="#bbburst-shape-10" width="19.6132501904017" opacity="0.6241015969838442" transform="matrix(0.8310247729422594,-0.5562354058815981,0.5562354058815981,0.8310247729422594,305.1757506763596,173.87266655292507)" fill="none" stroke="#00a19d" filter="url(#bbburst-blur-1)"></use><use xlink:href="#bbburst-shape-4" width="28.28636470574594" opacity="0.16070824086894175" transform="matrix(1.2499973193891354,-0.0025887294133789653,0.0025887294133789653,1.2499973193891354,743.3941753825824,-207.26384725249534)" fill="#406343" filter="url(#bbburst-blur-3)"></use><use xlink:href="#bbburst-shape-10" width="25.133536171982453" opacity="0.7125515408937624" transform="matrix(0.9408746249022,0.3387549855207218,-0.3387549855207218,0.9408746249022,431.2996496784233,109.936364280014)" fill="none" stroke="#ff5c58" filter="url(#bbburst-blur-1)"></use><use xlink:href="#bbburst-shape-10" width="37.69855482513563" opacity="0.33358810665790906" transform="matrix(0.8781804798831494,-0.4783294312000898,0.4783294312000898,0.8781804798831494,122.13015848289021,349.34872718585666)" fill="none" stroke="#00a19d" filter="url(#bbburst-blur-2)"></use><use xlink:href="#bbburst-shape-6" width="35.07262262585378" opacity="0.42666893618556856" transform="matrix(0.7800349278559874,-0.6257359757315417,0.6257359757315417,0.7800349278559874,330.5519562349177,268.4394830937322)" fill="#00a19d" filter="url(#bbburst-blur-2)"></use><use xlink:href="#bbburst-shape-7" width="14.78187424765627" opacity="0.7135103278000972" transform="matrix(0.8193645908429366,-0.5732727686475149,0.5732727686475149,0.8193645908429366,35.67746244242878,74.99357219464218)" fill="#00a19d" filter="url(#bbburst-blur-1)"></use><use xlink:href="#bbburst-shape-1" width="15.904554464503494" opacity="0.8085115643780143" transform="matrix(0.9950333451117057,0.09954216250317874,-0.09954216250317874,0.9950333451117057,425.6221288505865,-84.72517932701595)" fill="#406343"></use><use xlink:href="#bbburst-shape-11" width="51.37150864415053" opacity="-0.08639575220394669" transform="matrix(1.4782689735868053,-0.9366006842462873,0.9366006842462873,1.4782689735868053,-366.09143647392085,170.13644708171876)" fill="none" stroke="#00a19d" filter="url(#bbburst-blur-4)"></use><use xlink:href="#bbburst-shape-10" width="37.05073939077859" opacity="0.04907165851974005" transform="matrix(1.3533544654310499,1.109473609824874,-1.109473609824874,1.3533544654310499,576.7691590886345,191.05570736274444)" fill="none" stroke="#00a19d" filter="url(#bbburst-blur-4)"></use><use xlink:href="#bbburst-shape-6" width="35.171467624684055" opacity="0.3337935599702664" transform="matrix(0.9402347520583549,0.3405269607854329,-0.3405269607854329,0.9402347520583549,283.70717747290564,-166.99959786870917)" fill="#00a19d" filter="url(#bbburst-blur-2)"></use><use xlink:href="#bbburst-shape-7" width="20.758193563195952" opacity="0.7056276559010985" transform="matrix(0.9928683903049269,-0.1192156010482827,0.1192156010482827,0.9928683903049269,412.46969223333565,116.21864856318797)" fill="#406343" filter="url(#bbburst-blur-1)"></use><use xlink:href="#bbburst-shape-10" width="27.90376684327702" opacity="0.5248341330007702" transform="matrix(0.9986665196159978,0.051625406517235746,-0.051625406517235746,0.9986665196159978,533.6977607492173,-172.22417174957218)" fill="none" stroke="#406343" filter="url(#bbburst-blur-2)"></use><use xlink:href="#bbburst-shape-6" width="28.84594702344247" opacity="0.3497640579708967" transform="matrix(0.9626675980391354,-0.27068634188957846,0.27068634188957846,0.9626675980391354,-14.738690365836348,14.903828517552313)" fill="#2c2891" filter="url(#bbburst-blur-2)"></use><use xlink:href="#bbburst-shape-6" width="34.995183944099395" opacity="0.2882646093554617" transform="matrix(1.2496040336927996,-0.03146043513184108,0.03146043513184108,1.2496040336927996,69.53424635742304,-221.57755837123102)" fill="#2c2891" filter="url(#bbburst-blur-3)"></use><use xlink:href="#bbburst-shape-11" width="29.21079193145329" opacity="0.3382449637114163" transform="matrix(0.9979471663021711,-0.06404258949688794,0.06404258949688794,0.9979471663021711,521.9202287252376,-248.399862724131)" fill="none" stroke="#00a19d" filter="url(#bbburst-blur-2)"></use><use xlink:href="#bbburst-shape-7" width="19.20484257519044" opacity="0.610519931599558" transform="matrix(0.9926044488042184,0.12139360862118687,-0.12139360862118687,0.9926044488042184,288.8997111421829,-88.77893273672055)" fill="#2c2891" filter="url(#bbburst-blur-1)"></use><use xlink:href="#bbburst-shape-11" width="27.401559816896274" opacity="0.5653388141682318" transform="matrix(0.9624024485880386,0.27162755190103177,-0.27162755190103177,0.9624024485880386,612.0667879351627,168.0918244713739)" fill="none" stroke="#00a19d" filter="url(#bbburst-blur-1)"></use><use xlink:href="#bbburst-shape-8" width="37.309149294612645" opacity="-0.08787517523373256" transform="matrix(1.46323053137132,-0.9599252117028723,0.9599252117028723,1.46323053137132,339.28226001313726,174.32967610368758)" fill="none" stroke="#2c2891" filter="url(#bbburst-blur-4)"></use><use xlink:href="#bbburst-shape-11" width="33.10970664502672" opacity="0.41611815905124616" transform="matrix(0.9886717966011953,-0.15009356616912226,0.15009356616912226,0.9886717966011953,583.9584534918621,41.43030064981036)" fill="none" stroke="#00a19d" filter="url(#bbburst-blur-2)"></use><use xlink:href="#bbburst-shape-7" width="21.060651703883245" opacity="0.18045370399263572" transform="matrix(1.2463273245312534,0.09575071867494116,-0.09575071867494116,1.2463273245312534,410.66055386270824,268.95863304903304)" fill="#2c2891" filter="url(#bbburst-blur-3)"></use><use xlink:href="#bbburst-shape-8" width="21.561215513214798" opacity="0.43771155267484896" transform="matrix(0.9103025177423449,-0.41394362682851854,0.41394362682851854,0.9103025177423449,153.7915011473097,-202.576067215816)" fill="none" stroke="#00a19d" filter="url(#bbburst-blur-2)"></use><use xlink:href="#bbburst-shape-6" width="14.501019908064286" opacity="0.8092195074253254" transform="matrix(0.966786379878113,0.25558578928057213,-0.25558578928057213,0.966786379878113,447.80444310452106,82.99895572124353)" fill="#ff5c58"></use><use xlink:href="#bbburst-shape-6" width="31.338175285031568" opacity="0.3374256596408045" transform="matrix(0.7840317763708147,0.6207206889099354,-0.6207206889099354,0.7840317763708147,470.23975082931725,-171.1712022152654)" fill="#406343" filter="url(#bbburst-blur-2)"></use><use xlink:href="#bbburst-shape-11" width="35.722688739246074" opacity="0.11751718278324685" transform="matrix(1.064386070729769,0.6554252760127909,-0.6554252760127909,1.064386070729769,804.5594749639585,325.02157893864467)" fill="none" stroke="#ff5c58" filter="url(#bbburst-blur-3)"></use><use xlink:href="#bbburst-shape-8" width="36.66874701302985" opacity="0.3178254136235561" transform="matrix(1.114707172666012,-0.565621710339115,0.565621710339115,1.114707172666012,435.03780277554335,86.41968359901512)" fill="none" stroke="#2c2891" filter="url(#bbburst-blur-3)"></use><use xlink:href="#bbburst-shape-11" width="29.584952503464343" opacity="0.5110358939869286" transform="matrix(0.8084707344023296,0.5885363808762868,-0.5885363808762868,0.8084707344023296,510.3738513094995,-121.02030404868597)" fill="none" stroke="#00a19d" filter="url(#bbburst-blur-2)"></use><use xlink:href="#bbburst-shape-7" width="29.13396014594015" opacity="0.5174546534365383" transform="matrix(0.7674938732846055,-0.6410562802676485,0.6410562802676485,0.7674938732846055,344.21772043907754,54.99023486212093)" fill="#406343" filter="url(#bbburst-blur-2)"></use><use xlink:href="#bbburst-shape-6" width="17.287144871365356" opacity="0.7614167882935214" transform="matrix(0.9953738923407361,-0.09607712759264123,0.09607712759264123,0.9953738923407361,445.23670564170925,57.569488634588026)" fill="#00a19d" filter="url(#bbburst-blur-1)"></use><use xlink:href="#bbburst-shape-8" width="27.348267052047504" opacity="0.1830901042839368" transform="matrix(1.1977880845446962,-0.3574964398742278,0.3574964398742278,1.1977880845446962,267.7240181889665,-440.83586762159337)" fill="none" stroke="#406343" filter="url(#bbburst-blur-3)"></use><use xlink:href="#bbburst-shape-8" width="20.456693334929007" opacity="0.6319553660675903" transform="matrix(0.9763579394548171,0.21616006583905292,-0.21616006583905292,0.9763579394548171,455.7166598364716,171.55958875718977)" fill="none" stroke="#ff5c58" filter="url(#bbburst-blur-1)"></use><use xlink:href="#bbburst-shape-4" width="14.772164845137883" opacity="0.7728183938838378" transform="matrix(0.811874763215436,0.5838316271442305,-0.5838316271442305,0.811874763215436,665.9520330459845,-23.78740273140255)" fill="#ff5c58" filter="url(#bbburst-blur-1)"></use><use xlink:href="#bbburst-shape-8" width="14.678957697281017" opacity="0.9359370424700992" transform="matrix(0.8140341784793244,0.5808169731227657,-0.5808169731227657,0.8140341784793244,635.6680881652942,42.84180560895004)" fill="none" stroke="#406343"></use><use xlink:href="#bbburst-shape-10" width="15.47735680490291" opacity="0.8567869586795702" transform="matrix(0.7597441764976142,-0.6502221053439833,0.6502221053439833,0.7597441764976142,164.91782190258135,44.57167988375312)" fill="none" stroke="#00a19d"></use><use xlink:href="#bbburst-shape-11" width="24.60085366568726" opacity="0.463947654120784" transform="matrix(0.9406955176615359,-0.3392520347050184,0.3392520347050184,0.9406955176615359,76.92532817506847,192.88401989544906)" fill="none" stroke="#00a19d" filter="url(#bbburst-blur-2)"></use><use xlink:href="#bbburst-shape-1" width="12.28256834377525" opacity="0.9328510324702803" transform="matrix(0.8705763672578767,-0.49203332079451545,0.49203332079451545,0.8705763672578767,227.90415305099867,51.6910392732899)" fill="#00a19d"></use><use xlink:href="#bbburst-shape-11" width="39.71985912557812" opacity="0.4640362383833" transform="matrix(0.8356853246165209,0.5492085562157422,-0.5492085562157422,0.8356853246165209,377.2694764974962,138.349724134621)" fill="none" stroke="#00a19d" filter="url(#bbburst-blur-2)"></use><use xlink:href="#bbburst-shape-1" width="18.488942184293123" opacity="0.6056451730435368" transform="matrix(0.9923357175182894,0.12357112825195737,-0.12357112825195737,0.9923357175182894,264.57741670356063,27.054945611812116)" fill="#2c2891" filter="url(#bbburst-blur-1)"></use><use xlink:href="#bbburst-shape-8" width="13.261434305222693" opacity="0.9102542143252451" transform="matrix(0.9454490688913104,-0.32576994663804437,0.32576994663804437,0.9454490688913104,223.2501472790765,28.120055524669567)" fill="none" stroke="#00a19d"></use><use xlink:href="#bbburst-shape-1" width="45.99514603694598" opacity="0.09187638720676117" transform="matrix(1.4558237352144987,-0.9711216463379366,0.9711216463379366,1.4558237352144987,-381.72353389461273,-353.57425136428645)" fill="#2c2891" filter="url(#bbburst-blur-4)"></use><use xlink:href="#bbburst-shape-6" width="34.9527358049562" opacity="0.15597115889158975" transform="matrix(1.249877821431851,-0.017476598432469157,0.017476598432469157,1.249877821431851,185.55047242012245,-431.0132044920211)" fill="#2c2891" filter="url(#bbburst-blur-3)"></use><use xlink:href="#bbburst-shape-6" width="30.07733523176765" opacity="0.4972851383650603" transform="matrix(0.7979134244028812,0.6027720689926398,-0.6027720689926398,0.7979134244028812,402.8920488510345,73.2208435331105)" fill="#406343" filter="url(#bbburst-blur-2)"></use><use xlink:href="#bbburst-shape-4" width="31.478343293858508" opacity="0.45961604361154673" transform="matrix(0.8330491725433287,0.5531989480511288,-0.5531989480511288,0.8330491725433287,636.1914476834073,299.6480630978176)" fill="#00a19d" filter="url(#bbburst-blur-2)"></use><use xlink:href="#bbburst-shape-4" width="29.85913862603448" opacity="0.4430271039869643" transform="matrix(0.9734528505390568,-0.22888763133333506,0.22888763133333506,0.9734528505390568,176.6761054370603,235.58823377177146)" fill="#00a19d" filter="url(#bbburst-blur-2)"></use><use xlink:href="#bbburst-shape-1" width="32.37866375448564" opacity="0.5067161013964636" transform="matrix(0.9813002596435229,0.19248324712440448,-0.19248324712440448,0.9813002596435229,420.3366518536482,222.60773116790796)" fill="#ff5c58" filter="url(#bbburst-blur-2)"></use><use xlink:href="#bbburst-shape-10" width="17.69989190047973" opacity="0.829511801244079" transform="matrix(0.9922329261051444,0.12439381155356201,-0.12439381155356201,0.9922329261051444,517.4954191344165,7.550052925254192)" fill="none" stroke="#00a19d"></use><use xlink:href="#bbburst-shape-4" width="23.343518813310144" opacity="0.7398385182044569" transform="matrix(0.7087776078649245,0.7054319971402455,-0.7054319971402455,0.7087776078649245,790.8067742685504,102.32537132021343)" fill="#406343" filter="url(#bbburst-blur-1)"></use><use xlink:href="#bbburst-shape-7" width="35.161049460616766" opacity="-0.08574436166776178" transform="matrix(1.383328264329802,1.0718688880204974,-1.0718688880204974,1.383328264329802,1143.8855391525663,-523.5725471877212)" fill="#406343" filter="url(#bbburst-blur-4)"></use><use xlink:href="#bbburst-shape-4" width="13.047940228430816" opacity="0.7996622819797111" transform="matrix(0.9418370008946796,-0.3360700280383767,0.3360700280383767,0.9418370008946796,284.9830456759514,111.92403617579731)" fill="#2c2891"></use><use xlink:href="#bbburst-shape-6" width="32.29366762511072" opacity="0.35467500241075234" transform="matrix(0.999486045818033,-0.03205689028949744,0.03205689028949744,0.999486045818033,397.256210469447,-288.48677938385487)" fill="#ff5c58" filter="url(#bbburst-blur-2)"></use><use xlink:href="#bbburst-shape-4" width="23.935089775498835" opacity="0.5164784606012678" transform="matrix(0.9870284269272908,0.16054558367466182,-0.16054558367466182,0.9870284269272908,454.21640306289237,-214.2883981325727)" fill="#00a19d" filter="url(#bbburst-blur-2)"></use><use xlink:href="#bbburst-shape-8" width="25.60107268218616" opacity="0.5021764376061887" transform="matrix(0.8383708075873938,-0.5451003476290042,0.5451003476290042,0.8383708075873938,356.95499141419873,-53.63370035909912)" fill="none" stroke="#00a19d" filter="url(#bbburst-blur-2)"></use><use xlink:href="#bbburst-shape-10" width="14.429691601140917" opacity="0.9040742548463571" transform="matrix(0.9940372297762426,-0.1090412115613786,0.1090412115613786,0.9940372297762426,314.5649058355674,-22.576083430079507)" fill="none" stroke="#00a19d"></use><use xlink:href="#bbburst-shape-7" width="25.68827243665131" opacity="0.6545847685467701" transform="matrix(0.88921613134464,0.4574873460069382,-0.4574873460069382,0.88921613134464,717.9534396492598,-13.677005300955443)" fill="#406343" filter="url(#bbburst-blur-1)"></use><use xlink:href="#bbburst-shape-7" width="33.07167916432384" opacity="0.45678347658466734" transform="matrix(0.9936051484604858,0.11291062373761011,-0.11291062373761011,0.9936051484604858,198.15066157259798,-80.81673013026438)" fill="#2c2891" filter="url(#bbburst-blur-2)"></use><use xlink:href="#bbburst-shape-8" width="20.9677462201958" opacity="0.7194805827083015" transform="matrix(0.863362177107886,0.5045847313777254,-0.5045847313777254,0.863362177107886,606.0652391944159,174.89810737674605)" fill="none" stroke="#406343" filter="url(#bbburst-blur-1)"></use><use xlink:href="#bbburst-shape-6" width="30.44013763803582" opacity="0.17900186663596518" transform="matrix(1.1741644456730116,0.4287631683311772,-0.4287631683311772,1.1741644456730116,187.3278271272137,-28.105178722643302)" fill="#2c2891" filter="url(#bbburst-blur-3)"></use><use xlink:href="#bbburst-shape-6" width="40.75518163441639" opacity="0.03868912540647784" transform="matrix(1.748508552809992,0.0722346229332412,-0.0722346229332412,1.748508552809992,751.5700729469037,-543.2593035294378)" fill="#00a19d" filter="url(#bbburst-blur-4)"></use><use xlink:href="#bbburst-shape-4" width="33.263670440800404" opacity="0.27482133593092806" transform="matrix(1.2479574009917487,0.07143056285596193,-0.07143056285596193,1.2479574009917487,98.21501134013349,2.816551841875537)" fill="#2c2891" filter="url(#bbburst-blur-3)"></use><use xlink:href="#bbburst-shape-11" width="29.228681599498916" opacity="0.007817986789297127" transform="matrix(1.5927946509884836,-0.7249173744520647,0.7249173744520647,1.5927946509884836,-180.25319680856592,-585.17143567895)" fill="none" stroke="#ff5c58" filter="url(#bbburst-blur-4)"></use><use xlink:href="#bbburst-shape-1" width="24.037259161790274" opacity="0.14972665208482483" transform="matrix(1.2260232940808893,-0.24365320102770108,0.24365320102770108,1.2260232940808893,184.1887114434857,-455.76721956574187)" fill="#00a19d" filter="url(#bbburst-blur-3)"></use><use xlink:href="#bbburst-shape-4" width="14.633774092824787" opacity="0.7300550588505381" transform="matrix(0.8020530308245601,-0.5972528239741837,0.5972528239741837,0.8020530308245601,41.2700358635951,41.518134708666764)" fill="#406343" filter="url(#bbburst-blur-1)"></use><use xlink:href="#bbburst-shape-8" width="29.737910710168883" opacity="0.29163147755814844" transform="matrix(0.9015777307080909,0.865827693880976,-0.865827693880976,0.9015777307080909,670.642249045147,-286.1269308032161)" fill="none" stroke="#2c2891" filter="url(#bbburst-blur-3)"></use><use xlink:href="#bbburst-shape-11" width="17.410496700422996" opacity="0.7177470860941686" transform="matrix(0.993666372200375,0.11237055111614379,-0.11237055111614379,0.993666372200375,389.158590495641,119.26446313033705)" fill="none" stroke="#ff5c58" filter="url(#bbburst-blur-1)"></use><use xlink:href="#bbburst-shape-1" width="16.54158014718245" opacity="0.818376700810525" transform="matrix(0.8272130487296329,0.5618883981819042,-0.5618883981819042,0.8272130487296329,571.1475639611672,-2.5516027158628845)" fill="#2c2891"></use><use xlink:href="#bbburst-shape-4" width="19.62074244230237" opacity="0.7284962967170878" transform="matrix(0.7302850407256807,-0.6831425614703647,0.6831425614703647,0.7302850407256807,72.49664874130929,1.8654407424807573)" fill="#00a19d" filter="url(#bbburst-blur-1)"></use><use xlink:href="#bbburst-shape-10" width="22.633626831995745" opacity="0.7719367101563648" transform="matrix(0.7908171251712263,0.6120525096230854,-0.6120525096230854,0.7908171251712263,721.4107835697743,20.040119753181614)" fill="none" stroke="#00a19d" filter="url(#bbburst-blur-1)"></use><use xlink:href="#bbburst-shape-1" width="39.219152596396356" opacity="0.13328782004734308" transform="matrix(1.181170151785915,-0.4090685425818492,0.4090685425818492,1.181170151785915,-78.73201591407681,194.21257390696417)" fill="#00a19d" filter="url(#bbburst-blur-3)"></use><use xlink:href="#bbburst-shape-11" width="33.978047507701035" opacity="0.23119248360581057" transform="matrix(0.8882156823819848,-0.8795299321630305,0.8795299321630305,0.8882156823819848,125.19539915754024,392.64031124331933)" fill="none" stroke="#00a19d" filter="url(#bbburst-blur-3)"></use><use xlink:href="#bbburst-shape-4" width="35.026413056084564" opacity="0.4506574604202791" transform="matrix(0.9986531240821079,0.0518838872969817,-0.0518838872969817,0.9986531240821079,483.6905426029348,-234.0926702630719)" fill="#2c2891" filter="url(#bbburst-blur-2)"></use><use xlink:href="#bbburst-shape-11" width="18.050332903044534" opacity="0.6895465229304658" transform="matrix(0.9321549000553121,0.3620597220112603,-0.3620597220112603,0.9321549000553121,614.0583642406443,-92.54105581758984)" fill="none" stroke="#ff5c58" filter="url(#bbburst-blur-1)"></use><use xlink:href="#bbburst-shape-8" width="12.504255548508732" opacity="0.817518705372726" transform="matrix(0.8130880185309785,-0.5821407683038246,0.5821407683038246,0.8130880185309785,214.46545267991732,141.6248068208257)" fill="none" stroke="#00a19d"></use><use xlink:href="#bbburst-shape-8" width="15.704455970608556" opacity="0.8108152621186362" transform="matrix(0.9989854615513986,0.04503384959049364,-0.04503384959049364,0.9989854615513986,396.4842831578619,84.07821627085792)" fill="none" stroke="#406343"></use><use xlink:href="#bbburst-shape-8" width="13.746279396890099" opacity="0.8710714717720168" transform="matrix(0.9913386960923003,0.13133007892336687,-0.13133007892336687,0.9913386960923003,396.8298920989602,33.80258314709465)" fill="none" stroke="#00a19d"></use><use xlink:href="#bbburst-shape-7" width="43.17372398386787" opacity="-0.08678850780383263" transform="matrix(1.7381285641928996,0.20349224637987987,-0.20349224637987987,1.7381285641928996,84.95830071397313,-632.1812567545619)" fill="#00a19d" filter="url(#bbburst-blur-4)"></use><use xlink:href="#bbburst-shape-11" width="28.4476915022112" opacity="0.5922754677310049" transform="matrix(0.9639866634240464,-0.2659505832679715,0.2659505832679715,0.9639866634240464,463.01327607492726,27.847874319959317)" fill="none" stroke="#ff5c58" filter="url(#bbburst-blur-1)"></use><use xlink:href="#bbburst-shape-7" width="17.819302722326746" opacity="0.6359937019756626" transform="matrix(0.7345834425317085,0.6785183608114552,-0.6785183608114552,0.7345834425317085,564.9750347874503,-29.781867791029924)" fill="#00a19d" filter="url(#bbburst-blur-1)"></use><use xlink:href="#bbburst-shape-4" width="21.27281916516831" opacity="0.5981523534716586" transform="matrix(0.9485613159819147,0.3165934772269607,-0.3165934772269607,0.9485613159819147,423.55119782912345,172.31577084202343)" fill="#406343" filter="url(#bbburst-blur-1)"></use><use xlink:href="#bbburst-shape-7" width="9.853866534598259" opacity="0.978395750899903" transform="matrix(0.8374536277455518,-0.5465083909473073,0.5465083909473073,0.8374536277455518,167.61530676847588,66.35076053970386)" fill="#ff5c58"></use><use xlink:href="#bbburst-shape-7" width="26.83012443407679" opacity="0.07341157398702891" transform="matrix(1.7432085236514436,0.15402611164654492,-0.15402611164654492,1.7432085236514436,647.7820755137377,-659.7628295523335)" fill="#406343" filter="url(#bbburst-blur-4)"></use><use xlink:href="#bbburst-shape-7" width="15.384959514734724" opacity="0.9028599076145378" transform="matrix(0.7416192118559978,-0.6708210973173762,0.6708210973173762,0.7416192118559978,106.8462193122678,147.87688371611193)" fill="#2c2891"></use><use xlink:href="#bbburst-shape-1" width="21.64692494747723" opacity="0.732700508760499" transform="matrix(0.9571389355587078,0.28962917331916654,-0.28962917331916654,0.9571389355587078,415.1951004798893,-65.4390123707048)" fill="#00a19d" filter="url(#bbburst-blur-1)"></use><use xlink:href="#bbburst-shape-11" width="23.243663005085857" opacity="0.31336584192163" transform="matrix(1.247183001321979,-0.08387229109485761,0.08387229109485761,1.247183001321979,376.10675487188036,209.76614705372094)" fill="none" stroke="#00a19d" filter="url(#bbburst-blur-3)"></use><use xlink:href="#bbburst-shape-10" width="31.905616850294045" opacity="0.15779925826379526" transform="matrix(0.9283389195608182,-0.8370703975345519,0.8370703975345519,0.9283389195608182,-81.84568946233725,397.2007297081633)" fill="none" stroke="#406343" filter="url(#bbburst-blur-3)"></use><use xlink:href="#bbburst-shape-10" width="27.605933322293183" opacity="0.6051591268468524" transform="matrix(0.9136496405083332,-0.4065025638283152,0.4065025638283152,0.9136496405083332,51.49179158526991,0.9329024903302638)" fill="none" stroke="#00a19d" filter="url(#bbburst-blur-1)"></use><use xlink:href="#bbburst-shape-10" width="9.969737663577934" opacity="0.9495795249495005" transform="matrix(0.8533888090927187,0.5212749183639198,-0.5212749183639198,0.8533888090927187,613.9704277735707,76.55035505534198)" fill="none" stroke="#ff5c58"></use><use xlink:href="#bbburst-shape-6" width="45.17803525525787" opacity="0.052132558549053964" transform="matrix(1.608250874158114,0.689948639950585,-0.689948639950585,1.608250874158114,894.7496878623527,82.96458657651931)" fill="#00a19d" filter="url(#bbburst-blur-4)"></use><use xlink:href="#bbburst-shape-4" width="36.60507559843069" opacity="0.3735192211378684" transform="matrix(0.8868315099489714,0.46209292676000513,-0.46209292676000513,0.8868315099489714,829.9535936539411,-68.83066500092718)" fill="#2c2891" filter="url(#bbburst-blur-2)"></use><use xlink:href="#bbburst-shape-8" width="39.16774444609845" opacity="0.34095052709173757" transform="matrix(0.8374381659277887,0.5465320834566817,-0.5465320834566817,0.8374381659277887,826.0368417410386,-140.24928452514376)" fill="none" stroke="#406343" filter="url(#bbburst-blur-2)"></use><use xlink:href="#bbburst-shape-1" width="24.071055961569527" opacity="0.6143833832762762" transform="matrix(0.9897074387404166,-0.14310550549117468,0.14310550549117468,0.9897074387404166,380.8924659524255,-160.28524973156954)" fill="#2c2891" filter="url(#bbburst-blur-1)"></use><use xlink:href="#bbburst-shape-11" width="23.096369253488252" opacity="0.6090947692175925" transform="matrix(0.9994474835522348,-0.03323744305907743,0.03323744305907743,0.9994474835522348,331.37727835923187,-170.06591883699585)" fill="none" stroke="#2c2891" filter="url(#bbburst-blur-1)"></use><use xlink:href="#bbburst-shape-1" width="32.76058224140619" opacity="0.49281606824092705" transform="matrix(0.7072672682272969,0.7069462577129162,-0.7069462577129162,0.7072672682272969,498.1183919374098,-43.271082661857065)" fill="#2c2891" filter="url(#bbburst-blur-2)"></use><use xlink:href="#bbburst-shape-6" width="25.58452964070938" opacity="0.5076596851805426" transform="matrix(0.9978084022110907,-0.06616942252241872,0.06616942252241872,0.9978084022110907,563.8852755629106,90.20602796682238)" fill="#00a19d" filter="url(#bbburst-blur-2)"></use><use xlink:href="#bbburst-shape-8" width="26.64862110229278" opacity="0.6377753578553227" transform="matrix(0.9095754000433747,0.41553891711359,-0.41553891711359,0.9095754000433747,680.2677879514325,-72.56606773732699)" fill="none" stroke="#00a19d" filter="url(#bbburst-blur-1)"></use><use xlink:href="#bbburst-shape-8" width="39.69832202318917" opacity="0.22086098508377927" transform="matrix(1.127889138756635,0.5388562801664428,-0.5388562801664428,1.127889138756635,860.8769083698182,164.54213708363312)" fill="none" stroke="#2c2891" filter="url(#bbburst-blur-3)"></use><use xlink:href="#bbburst-shape-4" width="44.448511822728904" opacity="0.15005532783976527" transform="matrix(1.1895052203736285,-0.384157950202629,0.384157950202629,1.1895052203736285,477.9650867520745,-349.5249113328538)" fill="#406343" filter="url(#bbburst-blur-3)"></use><use xlink:href="#bbburst-shape-1" width="28.2859830971014" opacity="0.2156766379718278" transform="matrix(0.9346813235384887,-0.8299824235659086,0.8299824235659086,0.9346813235384887,360.6337388774213,-138.30252123987594)" fill="#2c2891" filter="url(#bbburst-blur-3)"></use><use xlink:href="#bbburst-shape-11" width="18.266223012845884" opacity="0.6683027209589514" transform="matrix(0.9164255485390561,-0.4002052148396996,0.4002052148396996,0.9164255485390561,373.72696099506607,82.01398482365744)" fill="none" stroke="#00a19d" filter="url(#bbburst-blur-1)"></use><use xlink:href="#bbburst-shape-8" width="14.701739609414371" opacity="0.885936144942858" transform="matrix(0.9214144371573757,0.38858131066477786,-0.38858131066477786,0.9214144371573757,536.2929704060925,-21.238960258226086)" fill="none" stroke="#406343"></use><use xlink:href="#bbburst-shape-4" width="15.680703952374756" opacity="0.8023787259518751" transform="matrix(0.904784732295859,-0.4258692149055985,0.4258692149055985,0.904784732295859,147.52458688796088,89.16087496691495)" fill="#00a19d"></use><use xlink:href="#bbburst-shape-4" width="18.24409599135851" opacity="0.8269521949860937" transform="matrix(0.9622994506709516,0.27199221907691556,-0.27199221907691556,0.9622994506709516,430.3371468331292,-22.15679163669654)" fill="#406343"></use><use xlink:href="#bbburst-shape-10" width="19.94733297121471" opacity="0.6993625722439843" transform="matrix(0.7339903155307047,0.6791599345567556,-0.6791599345567556,0.7339903155307047,667.7959630475336,-35.61261050437514)" fill="none" stroke="#ff5c58" filter="url(#bbburst-blur-1)"></use><use xlink:href="#bbburst-shape-1" width="13.133393240210644" opacity="0.8829369865119043" transform="matrix(0.8417010740856664,0.5399437951148577,-0.5399437951148577,0.8417010740856664,622.7261577262638,111.01402316283975)" fill="#406343"></use><use xlink:href="#bbburst-shape-6" width="29.837699708080848" opacity="0.5967304526953581" transform="matrix(0.9441205786101834,0.32960026250713537,-0.32960026250713537,0.9441205786101834,564.2717917826596,192.84292651083518)" fill="#00a19d" filter="url(#bbburst-blur-1)"></use><use xlink:href="#bbburst-shape-11" width="14.39975611404117" opacity="0.8229756152779242" transform="matrix(0.9827964046773867,0.18469224930462663,-0.18469224930462663,0.9827964046773867,387.1893677983615,6.925666562973163)" fill="none" stroke="#ff5c58"></use><use xlink:href="#bbburst-shape-7" width="34.50602641691656" opacity="0.09267721362480918" transform="matrix(1.3788702403508732,-1.0775977265541743,1.0775977265541743,1.3788702403508732,-416.1844541081081,57.57962442502571)" fill="#406343" filter="url(#bbburst-blur-4)"></use><use xlink:href="#bbburst-shape-1" width="31.611163435698998" opacity="0.06488916082495133" transform="matrix(1.5158419118988375,-0.8744845899905138,0.8744845899905138,1.5158419118988375,381.2005707903164,33.61323016780011)" fill="#00a19d" filter="url(#bbburst-blur-4)"></use><use xlink:href="#bbburst-shape-6" width="31.279301467689923" opacity="0.14928682791436176" transform="matrix(1.1731012706822868,0.43166353647673816,-0.43166353647673816,1.1731012706822868,270.50390044880356,-332.89817073023437)" fill="#406343" filter="url(#bbburst-blur-3)"></use><use xlink:href="#bbburst-shape-7" width="34.87261798453216" opacity="0.21074703876278655" transform="matrix(1.2438336020800964,-0.12400794465054399,0.12400794465054399,1.2438336020800964,447.4684963200452,-430.03434797914315)" fill="#406343" filter="url(#bbburst-blur-3)"></use><use xlink:href="#bbburst-shape-4" width="29.506984745847166" opacity="0.2018349315960598" transform="matrix(1.0097135248116798,-0.7368708148735253,0.7368708148735253,1.0097135248116798,449.4157816762917,16.789029427516425)" fill="#406343" filter="url(#bbburst-blur-3)"></use><use xlink:href="#bbburst-shape-11" width="13.7937001585246" opacity="0.864835031413301" transform="matrix(0.9849922098545739,-0.17259880221427673,0.17259880221427673,0.9849922098545739,378.473819343964,-20.313584711089163)" fill="none" stroke="#2c2891"></use><use xlink:href="#bbburst-shape-6" width="31.33065697163182" opacity="0.1839528967149634" transform="matrix(1.2471289113864616,0.08467277238887944,-0.08467277238887944,1.2471289113864616,53.29626682913174,-167.29193289614545)" fill="#2c2891" filter="url(#bbburst-blur-3)"></use><use xlink:href="#bbburst-shape-1" width="30.31587410305177" opacity="0.33934181625215576" transform="matrix(0.9745369893514855,0.22422679676109805,-0.22422679676109805,0.9745369893514855,770.0441629383465,-28.96426567726553)" fill="#2c2891" filter="url(#bbburst-blur-2)"></use><use xlink:href="#bbburst-shape-8" width="16.60555644731311" opacity="0.7453639595987408" transform="matrix(0.9429261875709859,-0.3330018089933534,0.3330018089933534,0.9429261875709859,150.54362671015753,62.65712286368131)" fill="none" stroke="#2c2891" filter="url(#bbburst-blur-1)"></use><use xlink:href="#bbburst-shape-11" width="19.068811996717304" opacity="0.6395468246194216" transform="matrix(0.9799810950283646,-0.19909056579106776,0.19909056579106776,0.9799810950283646,161.4757439298727,72.60292769647515)" fill="none" stroke="#00a19d" filter="url(#bbburst-blur-1)"></use><use xlink:href="#bbburst-shape-4" width="14.489147031358822" opacity="0.8797877798434699" transform="matrix(0.7975961835861823,-0.6031917837046166,0.6031917837046166,0.7975961835861823,199.54378515166158,112.83042026655869)" fill="#2c2891"></use><use xlink:href="#bbburst-shape-10" width="38.308564743413136" opacity="0.16070192525046356" transform="matrix(0.9335759840961013,0.8312255301174261,-0.8312255301174261,0.9335759840961013,1075.0069351696065,123.59968455491293)" fill="none" stroke="#00a19d" filter="url(#bbburst-blur-3)"></use></svg>