<svg xmlns="http://www.w3.org/2000/svg" version="1.1" xmlns:xlink="http://www.w3.org/1999/xlink" xmlns:svgjs="http://svgjs.dev/svgjs" viewBox="0 0 800 800"><defs><filter id="bbburst-blur-1" x="-100%" y="-100%" width="400%" height="400%"><feGaussianBlur in="SourceGraphic" stdDeviation="1"></feGaussianBlur></filter><filter id="bbburst-blur-2" x="-100%" y="-100%" width="400%" height="400%"><feGaussianBlur in="SourceGraphic" stdDeviation="2"></feGaussianBlur></filter><filter id="bbburst-blur-3" x="-100%" y="-100%" width="400%" height="400%"><feGaussianBlur in="SourceGraphic" stdDeviation="4"></feGaussianBlur></filter><filter id="bbburst-blur-4" x="-100%" y="-100%" width="400%" height="400%"><feGaussianBlur in="SourceGraphic" stdDeviation="12"></feGaussianBlur></filter><symbol id="bbburst-shape-1" viewBox="0 0 194 167"><path d="m97 0 96.129 166.5H.871L97 0Z"></path></symbol><symbol id="bbburst-shape-4" viewBox="0 0 149 143"><path d="M71.647 2.781c.898-2.764 4.808-2.764 5.706 0l15.445 47.534a3 3 0 0 0 2.853 2.073h49.98c2.906 0 4.115 3.719 1.764 5.427L106.96 87.193a2.999 2.999 0 0 0-1.09 3.354l15.445 47.534c.898 2.764-2.266 5.062-4.617 3.354l-40.435-29.378a3 3 0 0 0-3.526 0l-40.435 29.378c-2.351 1.708-5.515-.59-4.617-3.354L43.13 90.547a3 3 0 0 0-1.09-3.354L1.605 57.815c-2.35-1.708-1.142-5.427 1.764-5.427h49.98a3 3 0 0 0 2.853-2.073L71.647 2.781Z"></path></symbol><symbol id="bbburst-shape-6" viewBox="0 0 133 116"><path d="M59.7487 10.2513c-13.6683-13.66839-35.8291-13.66839-49.4974 0-13.66839 13.6683-13.66839 35.8291 0 49.4974l49.4974-49.4974ZM66.5 66.5 41.7513 91.2487 66.5 115.997l24.7487-24.7483L66.5 66.5Zm56.249-6.7513c13.668-13.6683 13.668-35.8291 0-49.4974-13.669-13.66839-35.8294-13.66839-49.4977 0l49.4977 49.4974Zm-112.4977 0 31.5 31.5 49.4974-49.4974-31.5-31.5-49.4974 49.4974Zm80.9974 31.5 31.5003-31.5-49.4977-49.4974-31.5 31.5 49.4974 49.4974Z"></path></symbol><symbol id="bbburst-shape-7" viewBox="0 0 139 124"><path fill-rule="evenodd" clip-rule="evenodd" d="M70.1641 15.0917C54.6093.764854 37.8293-2.10782 24.4032 2.82615 10.3804 7.97941.763366 21.4591 1.00047 37.0608c.1068 7.0273 2.86132 13.7317 7.0039 20.2001C12.1442 63.7249 17.853 70.2322 24.25 76.9024c3.8209 3.9842 7.8871 8.0312 12.0767 12.201h.0001c10.0335 9.9862 20.7748 20.6766 30.5497 32.8956 1.38 1.725 3.8972 2.005 5.6223.624.6706-.536 1.1228-1.244 1.3439-2.011 9.5768-11.748 20.0328-22.0735 29.8163-31.7351 4.19-4.1373 8.256-8.1528 12.078-12.1062 6.396-6.6176 12.106-13.0752 16.247-19.4911 4.144-6.4196 6.905-13.0811 7.012-20.0691.237-15.5124-9.399-28.8902-23.411-33.99923-13.32-4.85681-29.9542-2.08621-45.4209 11.88043Zm-3.7351 7.4919C52.1278 8.44857 37.6826 6.46918 27.1626 10.3352 16.2859 14.3323 8.8148 24.7824 8.99955 36.9392c.07575 4.9844 2.03755 10.2234 5.74165 16.0072 3.707 5.7881 8.9752 11.8418 15.2827 18.4187 3.5798 3.7328 7.4978 7.6329 11.6 11.7163 9.0476 9.0063 18.9911 18.9046 28.1786 29.8666 9.2999-11.068 19.4036-21.0473 28.5839-30.1144l.0007-.0006c4.1019-4.0508 8.0189-7.9196 11.5979-11.6222 6.307-6.5252 11.573-12.5298 15.278-18.2697 3.703-5.7362 5.658-10.924 5.734-15.8531.184-12.0276-7.267-22.3914-18.153-26.3608-10.71-3.90518-25.4722-1.80041-40.0023 12.867-1.5547 1.5694-4.0874 1.5813-5.6568.0265-.3146-.3116-.5666-.6625-.7559-1.0371Z"></path></symbol><symbol id="bbburst-shape-8" viewBox="0 0 87 168"><path d="m12 12 31.2546 18.0749c16.4102 9.4902 20.014 31.6325 7.4603 45.8369L36.3296 92.1884c-12.5684 14.2206-8.9394 36.3916 7.5068 45.8636L75 156" stroke-width="14" stroke-linecap="round" stroke-linejoin="round"></path></symbol><symbol id="bbburst-shape-10" viewBox="0 0 145 145"><circle cx="72.5" cy="72.5" r="61.5" fill="none" stroke-width="22"></circle></symbol><symbol id="bbburst-shape-11" viewBox="0 0 194 167"><path d="M10.398 161 97 11l86.603 150H10.397Z" stroke-width="11"></path></symbol></defs><use xlink:href="#bbburst-shape-8" width="10.348157299058638" opacity="0.8589871761165457" transform="matrix(0.8890540362378333,-0.457802272437804,0.457802272437804,0.8890540362378333,194.88423999993404,107.77214353293357)" fill="none" stroke="#00a19d"></use><use xlink:href="#bbburst-shape-7" width="31.961122164645452" opacity="0.5842153204364785" transform="matrix(0.9024267794767105,0.43084325187159717,-0.43084325187159717,0.9024267794767105,556.6626447861237,219.18484808903605)" fill="#00a19d" filter="url(#bbburst-blur-1)"></use><use xlink:href="#bbburst-shape-1" width="22.11374205197454" opacity="0.7472099514220358" transform="matrix(0.9239869059277772,-0.38242410707748675,0.38242410707748675,0.9239869059277772,160.21208962071177,118.74802290958473)" fill="#00a19d" filter="url(#bbburst-blur-1)"></use><use xlink:href="#bbburst-shape-11" width="50.04819641050135" opacity="-0.0848885711185623" transform="matrix(1.3330008103011417,-1.1338469207686281,1.1338469207686281,1.3330008103011417,255.4650175113361,-453.00029102349015)" fill="none" stroke="#2c2891" filter="url(#bbburst-blur-4)"></use><use xlink:href="#bbburst-shape-4" width="19.63667739792925" opacity="0.7248212714684183" transform="matrix(0.7144524666236516,0.699683980762301,-0.699683980762301,0.7144524666236516,794.116361448923,132.41310967662344)" fill="#ffbd9b" filter="url(#bbburst-blur-1)"></use><use xlink:href="#bbburst-shape-11" width="9.971305882130089" opacity="0.8819166614030731" transform="matrix(0.9008557793629135,0.43411849164535443,-0.43411849164535443,0.9008557793629135,589.0831579993123,86.6596453940632)" fill="none" stroke="#ff5c58"></use><use xlink:href="#bbburst-shape-4" width="27.355886262313195" opacity="0.5738733763992439" transform="matrix(0.9739707849987458,0.22667357580654798,-0.22667357580654798,0.9739707849987458,647.7007694057427,95.36141519755063)" fill="#ffa6d5" filter="url(#bbburst-blur-1)"></use><use xlink:href="#bbburst-shape-6" width="46.23491716993128" opacity="-0.07217616133454152" transform="matrix(1.3717157139994898,-1.0866903882738956,1.0866903882738956,1.3717157139994898,285.5910641246262,206.43333242127665)" fill="#2c2891" filter="url(#bbburst-blur-4)"></use><use xlink:href="#bbburst-shape-8" width="27.493751103041383" opacity="0.6466936791296739" transform="matrix(0.995116090910783,0.09871152724197081,-0.09871152724197081,0.995116090910783,477.01670977685933,151.110638712428)" fill="none" stroke="#ffa6d5" filter="url(#bbburst-blur-1)"></use><use xlink:href="#bbburst-shape-6" width="43.281233285349636" opacity="0.3609630250190736" transform="matrix(0.8646704982284832,0.5023394564368866,-0.5023394564368866,0.8646704982284832,828.6912911128184,191.4106234475443)" fill="#2c2891" filter="url(#bbburst-blur-2)"></use><use xlink:href="#bbburst-shape-4" width="16.19271688159107" opacity="0.7043901204455563" transform="matrix(0.890790962754795,-0.4544133148075499,0.4544133148075499,0.890790962754795,91.4827671851155,105.72098021211809)" fill="#ff5c58" filter="url(#bbburst-blur-1)"></use><use xlink:href="#bbburst-shape-8" width="22.037306227023464" opacity="0.6751829964214675" transform="matrix(0.9995882546893984,-0.028693572224495856,0.028693572224495856,0.9995882546893984,498.4303308194331,-81.63419646144388)" fill="none" stroke="#ffa6d5" filter="url(#bbburst-blur-1)"></use><use xlink:href="#bbburst-shape-11" width="21.2702559764017" opacity="0.6944265614633716" transform="matrix(0.9444483699574192,0.3286598187864983,-0.3286598187864983,0.9444483699574192,486.76502148215457,-114.57970638578098)" fill="none" stroke="#00a19d" filter="url(#bbburst-blur-1)"></use><use xlink:href="#bbburst-shape-10" width="34.865461265822454" opacity="0.07737001411371136" transform="matrix(1.737759162515426,-0.20662307009064887,0.20662307009064887,1.737759162515426,511.00736974730756,-641.1064317475333)" fill="none" stroke="#2c2891" filter="url(#bbburst-blur-4)"></use><use xlink:href="#bbburst-shape-11" width="37.39909569425164" opacity="-0.07328984082160894" transform="matrix(1.7348496591829408,-0.22977523807589587,0.22977523807589587,1.7348496591829408,-57.15782688314286,59.63985914588022)" fill="none" stroke="#2c2891" filter="url(#bbburst-blur-4)"></use><use xlink:href="#bbburst-shape-6" width="35.02089218768873" opacity="0.17690288965516765" transform="matrix(1.0990197272871067,-0.5955297129730589,0.5955297129730589,1.0990197272871067,-99.87871665846313,250.86108786877685)" fill="#ffa6d5" filter="url(#bbburst-blur-3)"></use><use xlink:href="#bbburst-shape-6" width="41.28532243368236" opacity="0.16827801321677627" transform="matrix(0.9491773178151107,-0.8133648746689965,0.8133648746689965,0.9491773178151107,-304.53108084698766,140.92369362732796)" fill="#ffbd9b" filter="url(#bbburst-blur-3)"></use><use xlink:href="#bbburst-shape-10" width="31.68757912822888" opacity="0.49292185057789306" transform="matrix(0.7410811258640521,0.6714154934822916,-0.6714154934822916,0.7410811258640521,732.3400275544045,308.25720058651376)" fill="none" stroke="#2c2891" filter="url(#bbburst-blur-2)"></use><use xlink:href="#bbburst-shape-11" width="27.890074943710545" opacity="0.16740742838136402" transform="matrix(1.2391447189545222,0.16437872577410542,-0.16437872577410542,1.2391447189545222,548.3934415444733,-459.508408720143)" fill="none" stroke="#2c2891" filter="url(#bbburst-blur-3)"></use><use xlink:href="#bbburst-shape-8" width="20.24513717428668" opacity="0.664515104391497" transform="matrix(0.8777733224148907,-0.4790761885720521,0.4790761885720521,0.8777733224148907,105.26278241015692,-64.21628471344286)" fill="none" stroke="#ff5c58" filter="url(#bbburst-blur-1)"></use><use xlink:href="#bbburst-shape-8" width="11.455618668620888" opacity="0.817329613614078" transform="matrix(0.9895759614128196,0.14401186268462007,-0.14401186268462007,0.9895759614128196,507.55140465498283,63.87667380069695)" fill="none" stroke="#ff5c58"></use><use xlink:href="#bbburst-shape-10" width="18.733358592560563" opacity="0.7823153219447193" transform="matrix(0.9534114439617004,-0.30167303247533644,0.30167303247533644,0.9534114439617004,241.01618378671452,114.90816989182326)" fill="none" stroke="#2c2891"></use><use xlink:href="#bbburst-shape-11" width="35.530736978510106" opacity="0.3307021337124251" transform="matrix(1.0293955582746177,-0.7091154945454853,0.7091154945454853,1.0293955582746177,154.9737758107753,296.06442473467325)" fill="none" stroke="#ffbd9b" filter="url(#bbburst-blur-3)"></use><use xlink:href="#bbburst-shape-11" width="45.10013822688147" opacity="0.2517120425913405" transform="matrix(0.9165417490625871,-0.8499713067070522,0.8499713067070522,0.9165417490625871,-244.21512076130503,234.39424609620767)" fill="none" stroke="#ffa6d5" filter="url(#bbburst-blur-3)"></use><use xlink:href="#bbburst-shape-6" width="34.401749881066216" opacity="0.4374476040765599" transform="matrix(0.991723196996652,0.12839431661385836,-0.12839431661385836,0.991723196996652,582.238572155269,-204.3192593055788)" fill="#ffa6d5" filter="url(#bbburst-blur-2)"></use><use xlink:href="#bbburst-shape-8" width="30.926414913045896" opacity="0.31984036515211833" transform="matrix(1.2128617373318649,-0.30243413517050377,0.30243413517050377,1.2128617373318649,371.9630046915385,-365.43301269685014)" fill="none" stroke="#2c2891" filter="url(#bbburst-blur-3)"></use><use xlink:href="#bbburst-shape-11" width="24.340237859792744" opacity="0.7158094447547234" transform="matrix(0.8267247707972233,-0.5626065706604204,0.5626065706604204,0.8267247707972233,165.16402585759857,203.78273763967843)" fill="none" stroke="#00a19d" filter="url(#bbburst-blur-1)"></use><use xlink:href="#bbburst-shape-11" width="27.009854066755437" opacity="0.5278595672019832" transform="matrix(0.7906165189087432,0.6123116200339669,-0.6123116200339669,0.7906165189087432,505.2065831463036,-93.41494645295106)" fill="none" stroke="#ffbd9b" filter="url(#bbburst-blur-2)"></use><use xlink:href="#bbburst-shape-10" width="30.185273185561304" opacity="0.5276343950700734" transform="matrix(0.966064743106014,0.25830004283296426,-0.25830004283296426,0.966064743106014,438.63638454383596,-196.89961854419906)" fill="none" stroke="#00a19d" filter="url(#bbburst-blur-2)"></use><use xlink:href="#bbburst-shape-10" width="10.440653353370035" opacity="0.9329914451854415" transform="matrix(0.9821920053307455,0.18787992086534652,-0.18787992086534652,0.9821920053307455,442.6942083727355,-6.597510311081919)" fill="none" stroke="#ffa6d5"></use><use xlink:href="#bbburst-shape-4" width="23.145332975795924" opacity="0.6216855507413008" transform="matrix(0.9845774581602674,0.17494921801101845,-0.17494921801101845,0.9845774581602674,563.021236563014,138.6067735832665)" fill="#ffbd9b" filter="url(#bbburst-blur-1)"></use><use xlink:href="#bbburst-shape-7" width="16.4657441626698" opacity="0.7461492962198396" transform="matrix(0.7412409775828768,0.6712390134311184,-0.6712390134311184,0.7412409775828768,719.1664012091438,197.0365894365762)" fill="#2c2891" filter="url(#bbburst-blur-1)"></use><use xlink:href="#bbburst-shape-6" width="14.9357710841217" opacity="0.8466180831863559" transform="matrix(0.9686325681386968,-0.2484973801492338,0.2484973801492338,0.9686325681386968,240.675948709546,58.98567077456801)" fill="#ff5c58"></use><use xlink:href="#bbburst-shape-8" width="35.68549268221697" opacity="0.3654366697688042" transform="matrix(0.9739333688057994,-0.22683428560644603,0.22683428560644603,0.9739333688057994,529.6639182590762,-143.6516320397048)" fill="none" stroke="#00a19d" filter="url(#bbburst-blur-2)"></use><use xlink:href="#bbburst-shape-11" width="26.595482971350947" opacity="0.5938862607363258" transform="matrix(0.8748868499117817,-0.4843273684724409,0.4843273684724409,0.8748868499117817,291.9718372746428,-98.38190166567847)" fill="none" stroke="#00a19d" filter="url(#bbburst-blur-1)"></use><use xlink:href="#bbburst-shape-11" width="21.34038298193929" opacity="0.7734958467505582" transform="matrix(0.9989032852950596,0.04682121983392679,-0.04682121983392679,0.9989032852950596,427.77286413052724,-100.3425508632804)" fill="none" stroke="#ff5c58" filter="url(#bbburst-blur-1)"></use><use xlink:href="#bbburst-shape-11" width="35.42909321455399" opacity="0.10889787611066759" transform="matrix(1.5411182511460575,0.8291287813027102,-0.8291287813027102,1.5411182511460575,1062.07931896207,-49.90694682970479)" fill="none" stroke="#00a19d" filter="url(#bbburst-blur-4)"></use><use xlink:href="#bbburst-shape-1" width="48.84305824249928" opacity="0.05978158325067018" transform="matrix(1.3132497893802215,1.1566654618742638,-1.1566654618742638,1.3132497893802215,481.54202536284276,-392.6828938094996)" fill="#ffbd9b" filter="url(#bbburst-blur-4)"></use><use xlink:href="#bbburst-shape-11" width="9.781434902240948" opacity="0.8775323270751587" transform="matrix(0.908949547910883,-0.4169061277465244,0.4169061277465244,0.908949547910883,275.5276451935988,67.46568797603317)" fill="none" stroke="#2c2891"></use><use xlink:href="#bbburst-shape-1" width="18.21142345182342" opacity="0.7154299063815118" transform="matrix(0.7539204444001607,0.6569657247645909,-0.6569657247645909,0.7539204444001607,723.0158792695981,-16.595573947259766)" fill="#2c2891" filter="url(#bbburst-blur-1)"></use><use xlink:href="#bbburst-shape-10" width="36.46993994815602" opacity="0.04914112089976164" transform="matrix(1.7498319087351493,0.024254714434601265,-0.024254714434601265,1.7498319087351493,22.34869404411291,-62.16161915852649)" fill="none" stroke="#00a19d" filter="url(#bbburst-blur-4)"></use><use xlink:href="#bbburst-shape-6" width="42.547239082943236" opacity="0.04230325244699307" transform="matrix(1.3947719197290924,1.056934856996978,-1.056934856996978,1.3947719197290924,1036.24112660943,175.43393818491063)" fill="#ffa6d5" filter="url(#bbburst-blur-4)"></use><use xlink:href="#bbburst-shape-11" width="24.565143739715438" opacity="0.6709490283710192" transform="matrix(0.8811413909545242,-0.47285288319595387,0.47285288319595387,0.8811413909545242,51.892414636681195,57.90412581713315)" fill="none" stroke="#ffa6d5" filter="url(#bbburst-blur-1)"></use><use xlink:href="#bbburst-shape-8" width="34.892420168256876" opacity="0.3719577631417108" transform="matrix(0.8986443594313918,0.4386779174544162,-0.4386779174544162,0.8986443594313918,414.7079682669856,-209.6471221382593)" fill="none" stroke="#2c2891" filter="url(#bbburst-blur-2)"></use><use xlink:href="#bbburst-shape-6" width="21.208641851308464" opacity="0.6699699962588922" transform="matrix(0.7424819433845076,0.6698660789650159,-0.6698660789650159,0.7424819433845076,600.3470308105241,231.87856077485668)" fill="#2c2891" filter="url(#bbburst-blur-1)"></use><use xlink:href="#bbburst-shape-4" width="44.002576031657966" opacity="0.17390846114352543" transform="matrix(1.1345094345974722,0.5247745637979455,-0.5247745637979455,1.1345094345974722,240.29860402933988,-204.66712763856168)" fill="#ffa6d5" filter="url(#bbburst-blur-3)"></use><use xlink:href="#bbburst-shape-11" width="14.323012549151183" opacity="0.8689555951420271" transform="matrix(0.8862961686799219,0.4631188847189147,-0.4631188847189147,0.8862961686799219,637.9524883798508,41.37597888967082)" fill="none" stroke="#00a19d"></use><use xlink:href="#bbburst-shape-8" width="27.70385006213628" opacity="0.19458988675925237" transform="matrix(0.9780606085461031,0.7783941456681354,-0.7783941456681354,0.9780606085461031,664.9206263295828,358.9327318557821)" fill="none" stroke="#ffa6d5" filter="url(#bbburst-blur-3)"></use><use xlink:href="#bbburst-shape-7" width="20.823193868029094" opacity="0.7744209418253241" transform="matrix(0.8489510094462626,0.5284715541636767,-0.5284715541636767,0.8489510094462626,531.7811892620927,-17.96106579675933)" fill="#ffa6d5" filter="url(#bbburst-blur-1)"></use><use xlink:href="#bbburst-shape-1" width="17.899748837257434" opacity="0.856809406117719" transform="matrix(0.9431414076449649,0.33239176461740755,-0.33239176461740755,0.9431414076449649,469.44330827951643,-13.673683718365567)" fill="#ffbd9b"></use><use xlink:href="#bbburst-shape-4" width="26.169531134941483" opacity="0.5262082692980079" transform="matrix(0.9729041004563395,-0.23120902083448433,0.23120902083448433,0.9729041004563395,112.22272393887383,-96.22909095277441)" fill="#2c2891" filter="url(#bbburst-blur-2)"></use><use xlink:href="#bbburst-shape-11" width="27.907430222654604" opacity="0.5226903997393926" transform="matrix(0.7682312760158702,-0.6401724037718495,0.6401724037718495,0.7682312760158702,340.4523804932809,45.77495209267346)" fill="none" stroke="#ffbd9b" filter="url(#bbburst-blur-2)"></use><use xlink:href="#bbburst-shape-10" width="32.8699438335576" opacity="0.09731581030488656" transform="matrix(1.7070952077985289,-0.38513108354337944,0.38513108354337944,1.7070952077985289,31.890767347193588,84.6127786760278)" fill="none" stroke="#2c2891" filter="url(#bbburst-blur-4)"></use><use xlink:href="#bbburst-shape-10" width="33.3521618492326" opacity="0.1934721237805691" transform="matrix(0.9571184517924651,0.8040051425447443,-0.8040051425447443,0.9571184517924651,1068.2379752828501,-11.975538469229889)" fill="none" stroke="#00a19d" filter="url(#bbburst-blur-3)"></use><use xlink:href="#bbburst-shape-8" width="21.691131184604316" opacity="0.6097938883010359" transform="matrix(0.991819197528168,-0.12765061462672567,0.12765061462672567,0.991819197528168,513.0905236602982,20.153463051687197)" fill="none" stroke="#00a19d" filter="url(#bbburst-blur-1)"></use><use xlink:href="#bbburst-shape-8" width="28.944817699901098" opacity="0.38032835042402247" transform="matrix(0.903616509424452,-0.4283423909626144,0.4283423909626144,0.903616509424452,380.71713082075456,269.45263231791387)" fill="none" stroke="#2c2891" filter="url(#bbburst-blur-2)"></use><use xlink:href="#bbburst-shape-10" width="30.18217812900833" opacity="0.519872366260445" transform="matrix(0.9601429731670449,-0.2795093398760539,0.2795093398760539,0.9601429731670449,58.44302429914612,1.657229020395846)" fill="none" stroke="#2c2891" filter="url(#bbburst-blur-2)"></use><use xlink:href="#bbburst-shape-4" width="25.09155350544767" opacity="0.6613917013167481" transform="matrix(0.7415345640171712,-0.6709146669792395,0.6709146669792395,0.7415345640171712,-17.461940267497425,51.22795866289658)" fill="#ffa6d5" filter="url(#bbburst-blur-1)"></use><use xlink:href="#bbburst-shape-11" width="39.49313293315995" opacity="0.38054914789925787" transform="matrix(0.7902437167201749,-0.6127926796105548,0.6127926796105548,0.7902437167201749,-126.49929753054016,10.565043828483113)" fill="none" stroke="#00a19d" filter="url(#bbburst-blur-2)"></use><use xlink:href="#bbburst-shape-11" width="40.07325963178529" opacity="0.23267632334082855" transform="matrix(1.233280131528462,0.20376485756169938,-0.20376485756169938,1.233280131528462,627.9034576798755,201.94669817268556)" fill="none" stroke="#ffa6d5" filter="url(#bbburst-blur-3)"></use><use xlink:href="#bbburst-shape-8" width="12.044096047334268" opacity="0.9396682456413996" transform="matrix(0.9794848850554931,-0.20151764177815137,0.20151764177815137,0.9794848850554931,313.5759533494968,-17.729571760205545)" fill="none" stroke="#2c2891"></use><use xlink:href="#bbburst-shape-1" width="15.460131502237003" opacity="0.8652069763045874" transform="matrix(0.7137953161478603,0.7003543721898052,-0.7003543721898052,0.7137953161478603,695.1244845621754,51.99977633534564)" fill="#ffa6d5"></use><use xlink:href="#bbburst-shape-4" width="31.704795127023537" opacity="0.43056886187477683" transform="matrix(0.9164769228305373,-0.4000875528169672,0.4000875528169672,0.9164769228305373,20.979142162395277,194.22357117971188)" fill="#00a19d" filter="url(#bbburst-blur-2)"></use><use xlink:href="#bbburst-shape-4" width="31.118306003903896" opacity="0.37804107744722015" transform="matrix(0.977259036017553,-0.21204899556952175,0.21204899556952175,0.977259036017553,293.19468824086863,-267.3759289211435)" fill="#2c2891" filter="url(#bbburst-blur-2)"></use><use xlink:href="#bbburst-shape-8" width="37.975789997394756" opacity="0.2849404526729038" transform="matrix(1.2452637284251495,-0.10871175956949476,0.10871175956949476,1.2452637284251495,224.577634702707,206.96530713937722)" fill="none" stroke="#ffa6d5" filter="url(#bbburst-blur-3)"></use><use xlink:href="#bbburst-shape-6" width="52.6434142010812" opacity="0.1789092845635315" transform="matrix(1.2140669581384937,-0.2975591053158089,0.2975591053158089,1.2140669581384937,525.9365996047438,166.8299749043607)" fill="#2c2891" filter="url(#bbburst-blur-3)"></use><use xlink:href="#bbburst-shape-6" width="22.120162809607187" opacity="0.6827280886388446" transform="matrix(0.9008541715358915,0.43412182809250965,-0.43412182809250965,0.9008541715358915,702.7673955308871,2.607181417852246)" fill="#ff5c58" filter="url(#bbburst-blur-1)"></use><use xlink:href="#bbburst-shape-8" width="16.565041549871573" opacity="0.8118597189712043" transform="matrix(0.9998875506160266,0.014996203622340587,-0.014996203622340587,0.9998875506160266,375.974062016602,-81.90277704465552)" fill="none" stroke="#00a19d"></use><use xlink:href="#bbburst-shape-10" width="44.25055151655172" opacity="0.23857001476306172" transform="matrix(1.1990262003965222,0.353321625099114,-0.353321625099114,1.1990262003965222,847.9162068435503,-7.190387990204783)" fill="none" stroke="#2c2891" filter="url(#bbburst-blur-3)"></use><use xlink:href="#bbburst-shape-6" width="12.628491807042684" opacity="0.8843767347980227" transform="matrix(0.9953795588096395,0.09601840398552496,-0.09601840398552496,0.9953795588096395,409.4821746860945,-45.604468698055314)" fill="#2c2891"></use><use xlink:href="#bbburst-shape-4" width="8.513207643678303" opacity="0.9339400839418159" transform="matrix(0.9998644380494924,0.016465282383629164,-0.016465282383629164,0.9998644380494924,430.0881169391052,10.630288162800923)" fill="#2c2891"></use><use xlink:href="#bbburst-shape-7" width="14.20512114996129" opacity="0.8668438937563316" transform="matrix(0.9770868681832721,0.2128409077780985,-0.2128409077780985,0.9770868681832721,418.30360440444264,10.656079948138483)" fill="#00a19d"></use><use xlink:href="#bbburst-shape-8" width="33.02447276473737" opacity="0.5399364686336844" transform="matrix(0.9928569747628787,0.11931063517014896,-0.11931063517014896,0.9928569747628787,598.9618127347239,-120.60524454824116)" fill="none" stroke="#ff5c58" filter="url(#bbburst-blur-2)"></use><use xlink:href="#bbburst-shape-6" width="29.494730086559848" opacity="0.3273297890772596" transform="matrix(1.249971911751481,-0.008379727462649814,0.008379727462649814,1.249971911751481,75.67937436029631,-89.82230351398908)" fill="#2c2891" filter="url(#bbburst-blur-3)"></use><use xlink:href="#bbburst-shape-6" width="26.50022821884372" opacity="0.19434944327294978" transform="matrix(1.2097409510682253,-0.31468528931067874,0.31468528931067874,1.2097409510682253,240.36610427209368,-441.83531777028196)" fill="#ffa6d5" filter="url(#bbburst-blur-3)"></use><use xlink:href="#bbburst-shape-1" width="36.487714482198946" opacity="0.4955410909742972" transform="matrix(0.9924003837316777,-0.12305071462295021,0.12305071462295021,0.9924003837316777,384.4498109568672,-215.69316149187074)" fill="#ffbd9b" filter="url(#bbburst-blur-2)"></use><use xlink:href="#bbburst-shape-6" width="29.242504326613844" opacity="0.15728322049438792" transform="matrix(1.2423849361504038,-0.13776672467093423,0.13776672467093423,1.2423849361504038,429.1626172537592,270.18666022506227)" fill="#2c2891" filter="url(#bbburst-blur-3)"></use><use xlink:href="#bbburst-shape-6" width="16.13428889524197" opacity="0.7923367260503197" transform="matrix(0.7281079559884676,-0.6854624748491311,0.6854624748491311,0.7281079559884676,189.1762191221183,51.523999994991584)" fill="#00a19d"></use><use xlink:href="#bbburst-shape-4" width="37.24090567503063" opacity="0.33421772631864555" transform="matrix(0.9521260347313384,0.30570576374477826,-0.30570576374477826,0.9521260347313384,267.0828922783628,-169.19646360663046)" fill="#ffa6d5" filter="url(#bbburst-blur-2)"></use><use xlink:href="#bbburst-shape-10" width="10.510706655456454" opacity="0.8714298801407752" transform="matrix(0.9616874646169253,0.27414817234238503,-0.27414817234238503,0.9616874646169253,552.6312292675973,-18.378519240197647)" fill="none" stroke="#2c2891"></use><use xlink:href="#bbburst-shape-7" width="22.98840975979053" opacity="0.502061270341522" transform="matrix(0.9669370202566976,0.2550152914181791,-0.2550152914181791,0.9669370202566976,650.5876107617081,167.3672524432809)" fill="#2c2891" filter="url(#bbburst-blur-2)"></use><use xlink:href="#bbburst-shape-6" width="38.249228097542115" opacity="0.45935423886786475" transform="matrix(0.9596925781774777,-0.2810518731321068,0.2810518731321068,0.9596925781774777,507.216772768092,72.00119491903342)" fill="#ffbd9b" filter="url(#bbburst-blur-2)"></use><use xlink:href="#bbburst-shape-4" width="28.209479505473364" opacity="0.4141043590760294" transform="matrix(0.9977375913400458,-0.06722870537920339,0.06722870537920339,0.9977375913400458,338.82206493739426,264.75567572682945)" fill="#ffa6d5" filter="url(#bbburst-blur-2)"></use><use xlink:href="#bbburst-shape-6" width="18.927137994619997" opacity="0.7893195058720603" transform="matrix(0.712357168351369,0.7018171162763268,-0.7018171162763268,0.712357168351369,581.9748713485151,131.2696296731645)" fill="#00a19d"></use><use xlink:href="#bbburst-shape-4" width="36.5077777817762" opacity="0.08807818398916412" transform="matrix(1.5929397741732474,-0.7245984238575762,0.7245984238575762,1.5929397741732474,-117.27073638672078,-583.1253368771359)" fill="#00a19d" filter="url(#bbburst-blur-4)"></use><use xlink:href="#bbburst-shape-7" width="35.36448045264775" opacity="0.24908731485928937" transform="matrix(1.226642110322767,-0.2405184674466988,0.2405184674466988,1.226642110322767,506.19002090115634,-339.1675089452759)" fill="#ffa6d5" filter="url(#bbburst-blur-3)"></use><use xlink:href="#bbburst-shape-8" width="30.94495178268831" opacity="0.12443821031498548" transform="matrix(0.8879652798612243,0.8797827355438259,-0.8797827355438259,0.8879652798612243,1103.3599181384934,-116.70897465599913)" fill="none" stroke="#ff5c58" filter="url(#bbburst-blur-3)"></use><use xlink:href="#bbburst-shape-4" width="9.225478832158704" opacity="0.9156573167001998" transform="matrix(0.9385066420036832,-0.3452611807240577,0.3452611807240577,0.9385066420036832,241.89384733401096,60.763709621496616)" fill="#2c2891"></use><use xlink:href="#bbburst-shape-1" width="34.81153883928361" opacity="0.08012493298693601" transform="matrix(1.6432374877411282,-0.6018891583026109,0.6018891583026109,1.6432374877411282,464.4213026854284,-491.61067183473796)" fill="#00a19d" filter="url(#bbburst-blur-4)"></use><use xlink:href="#bbburst-shape-8" width="8.763296278109603" opacity="0.9376800669206288" transform="matrix(0.8676173223983793,0.49723252294501685,-0.49723252294501685,0.8676173223983793,602.870153994451,77.71793266608597)" fill="none" stroke="#00a19d"></use><use xlink:href="#bbburst-shape-11" width="8.65019412624545" opacity="0.9924507428290823" transform="matrix(0.9198696568192041,0.3922241890339244,-0.3922241890339244,0.9198696568192041,551.4550714728076,33.30134888028408)" fill="none" stroke="#2c2891"></use><use xlink:href="#bbburst-shape-10" width="26.83721091924656" opacity="0.5104012848675177" transform="matrix(0.8267403363749453,0.5625836970715045,-0.5625836970715045,0.8267403363749453,539.7381422400963,269.2030007434802)" fill="none" stroke="#00a19d" filter="url(#bbburst-blur-2)"></use><use xlink:href="#bbburst-shape-11" width="18.761988739102048" opacity="0.7755976244708587" transform="matrix(0.9166512301126355,0.39968803126062236,-0.39968803126062236,0.9166512301126355,453.846901265177,3.1789766053513517)" fill="none" stroke="#ffa6d5" filter="url(#bbburst-blur-1)"></use><use xlink:href="#bbburst-shape-4" width="14.772576395441606" opacity="0.8107998933576084" transform="matrix(0.988319694312787,-0.15239482220036002,0.15239482220036002,0.988319694312787,347.4015111065131,89.49896087806167)" fill="#00a19d"></use><use xlink:href="#bbburst-shape-6" width="23.9662627710881" opacity="0.5616927508636781" transform="matrix(0.7959075382020799,0.60541819483156,-0.60541819483156,0.7959075382020799,511.07866867547324,229.71523952981426)" fill="#ffa6d5" filter="url(#bbburst-blur-1)"></use><use xlink:href="#bbburst-shape-8" width="29.19309709573713" opacity="0.5435566389515434" transform="matrix(0.9616708661901772,0.27420639146641773,-0.27420639146641773,0.9616708661901772,298.34114150979667,68.42522824544136)" fill="none" stroke="#ffa6d5" filter="url(#bbburst-blur-2)"></use><use xlink:href="#bbburst-shape-4" width="39.11680021301117" opacity="0.3799655629386275" transform="matrix(0.9963292857613464,-0.08560347150837606,0.08560347150837606,0.9963292857613464,624.2392403712666,-21.019615346370244)" fill="#00a19d" filter="url(#bbburst-blur-2)"></use><use xlink:href="#bbburst-shape-8" width="32.3316244873992" opacity="0.23641005616795574" transform="matrix(1.0967401881414198,-0.5997173998772448,0.5997173998772448,1.0967401881414198,37.051927616588216,-356.07437338394834)" fill="none" stroke="#ffbd9b" filter="url(#bbburst-blur-3)"></use><use xlink:href="#bbburst-shape-8" width="29.33980184719963" opacity="0.641923655210214" transform="matrix(0.9963173466704364,-0.08574231582819257,0.08574231582819257,0.9963173466704364,372.5642895060588,-156.9657416914226)" fill="none" stroke="#00a19d" filter="url(#bbburst-blur-1)"></use><use xlink:href="#bbburst-shape-10" width="8.643607085802358" opacity="0.9366581083706872" transform="matrix(0.9991305412396635,-0.041691264818150685,0.041691264818150685,0.9991305412396635,402.78968139571634,-15.181258869441137)" fill="none" stroke="#2c2891"></use><use xlink:href="#bbburst-shape-4" width="31.623795106139312" opacity="0.3760324525863751" transform="matrix(0.9916043761048355,-0.12930878272468496,0.12930878272468496,0.9916043761048355,65.31994281310354,91.46199344063245)" fill="#ffa6d5" filter="url(#bbburst-blur-2)"></use><use xlink:href="#bbburst-shape-7" width="19.074793177923365" opacity="0.7105244452610417" transform="matrix(0.9637303201131681,-0.2668780060150528,0.2668780060150528,0.9637303201131681,390.63957376201836,91.86193387150706)" fill="#2c2891" filter="url(#bbburst-blur-1)"></use><use xlink:href="#bbburst-shape-6" width="24.631791006069914" opacity="0.6001891647725504" transform="matrix(0.8699319187648374,0.49317183284746535,-0.49317183284746535,0.8699319187648374,438.4692723697278,148.13043547329988)" fill="#ffa6d5" filter="url(#bbburst-blur-1)"></use><use xlink:href="#bbburst-shape-11" width="31.69416351199813" opacity="0.2860872180399815" transform="matrix(1.2432494285082194,0.12973379865704074,-0.12973379865704074,1.2432494285082194,734.5206450061103,-208.6645096094689)" fill="none" stroke="#ff5c58" filter="url(#bbburst-blur-3)"></use><use xlink:href="#bbburst-shape-4" width="39.130217844434014" opacity="0.377948571967334" transform="matrix(0.963823833168477,-0.26654008819767405,0.26654008819767405,0.963823833168477,114.24033431386968,249.2021612983968)" fill="#ffa6d5" filter="url(#bbburst-blur-2)"></use><use xlink:href="#bbburst-shape-1" width="31.60988357865665" opacity="0.18724001150402803" transform="matrix(1.2414513317677844,0.14594036745189598,-0.14594036745189598,1.2414513317677844,74.75261923655037,-134.52617674427688)" fill="#ffa6d5" filter="url(#bbburst-blur-3)"></use><use xlink:href="#bbburst-shape-10" width="19.310289193632887" opacity="0.792511502029685" transform="matrix(0.9633741286335092,0.26816093727391893,-0.26816093727391893,0.9633741286335092,588.7778928352157,-9.631011640604186)" fill="none" stroke="#00a19d"></use><use xlink:href="#bbburst-shape-4" width="12.39967606742898" opacity="0.8075683066275028" transform="matrix(0.9634262973925544,-0.2679734492304666,0.2679734492304666,0.9634262973925544,368.0566716343329,46.34339413729123)" fill="#ffbd9b"></use><use xlink:href="#bbburst-shape-10" width="38.83874391559302" opacity="-0.07760510839531554" transform="matrix(1.7491407045430618,-0.054834256725163046,0.054834256725163046,1.7491407045430618,8.028078174468462,-648.1710249332643)" fill="none" stroke="#ff5c58" filter="url(#bbburst-blur-4)"></use><use xlink:href="#bbburst-shape-11" width="38.797105465949365" opacity="0.1731451021977526" transform="matrix(1.1080907271740656,-0.5784763956730218,0.5784763956730218,1.1080907271740656,-100.0082601466842,-310.993615238563)" fill="none" stroke="#00a19d" filter="url(#bbburst-blur-3)"></use><use xlink:href="#bbburst-shape-4" width="9.994808300738754" opacity="0.9243703343445393" transform="matrix(0.7881254103450573,0.6155146932189638,-0.6155146932189638,0.7881254103450573,611.7657351057951,96.78945658105641)" fill="#2c2891"></use></svg>