<svg xmlns="http://www.w3.org/2000/svg" version="1.1" xmlns:xlink="http://www.w3.org/1999/xlink" xmlns:svgjs="http://svgjs.dev/svgjs" viewBox="0 0 800 800"><defs><linearGradient gradientTransform="rotate(270)" x1="50%" y1="0%" x2="50%" y2="100%" id="sssquiggly-grad"><stop stop-color="hsl(206, 75%, 49%)" stop-opacity="1" offset="0%"></stop><stop stop-color="hsl(331, 90%, 56%)" stop-opacity="1" offset="100%"></stop></linearGradient></defs><g stroke-width="2" stroke="url(#sssquiggly-grad)" fill="none" stroke-linecap="round" transform="matrix(1,0,0,1,0,48.99644088745117)"><path d="M10,10C21.805555555555557,14.375,40.97222222222223,37.25,66.66666666666667,31C92.36111111111111,24.75,105.55555555555557,-21.458333333333332,133.33333333333334,-20C161.11111111111111,-18.541666666666668,172.22222222222223,36.75,200,38C227.77777777777777,39.25,238.8888888888889,-15.25,266.6666666666667,-14C294.44444444444446,-12.75,305.5555555555556,45.041666666666664,333.33333333333337,44C361.11111111111114,42.958333333333336,372.22222222222223,-14.833333333333332,400,-19C427.77777777777777,-23.166666666666668,438.8888888888889,19.625,466.6666666666667,24C494.44444444444446,28.375,505.5555555555556,-4.875,533.3333333333334,2C561.1111111111111,8.875,572.2222222222222,58.666666666666664,600,57C627.7777777777778,55.333333333333336,638.8888888888889,-1.208333333333333,666.6666666666667,-6C694.4444444444446,-10.791666666666668,707.6388888888889,30.666666666666668,733.3333333333334,34C759.0277777777778,37.333333333333336,778.1944444444445,15,790,10"></path><path d="M10,10C21.805555555555557,14.375,40.97222222222223,37.25,66.66666666666667,31C92.36111111111111,24.75,105.55555555555557,-21.458333333333332,133.33333333333334,-20C161.11111111111111,-18.541666666666668,172.22222222222223,36.75,200,38C227.77777777777777,39.25,238.8888888888889,-15.25,266.6666666666667,-14C294.44444444444446,-12.75,305.5555555555556,45.041666666666664,333.33333333333337,44C361.11111111111114,42.958333333333336,372.22222222222223,-14.833333333333332,400,-19C427.77777777777777,-23.166666666666668,438.8888888888889,19.625,466.6666666666667,24C494.44444444444446,28.375,505.5555555555556,-4.875,533.3333333333334,2C561.1111111111111,8.875,572.2222222222222,58.666666666666664,600,57C627.7777777777778,55.333333333333336,638.8888888888889,-1.208333333333333,666.6666666666667,-6C694.4444444444446,-10.791666666666668,707.6388888888889,30.666666666666668,733.3333333333334,34C759.0277777777778,37.333333333333336,778.1944444444445,15,790,10" transform="matrix(1,0,0,1,0,665)"></path><path d="M10,10C21.805555555555557,14.375,40.97222222222223,37.25,66.66666666666667,31C92.36111111111111,24.75,105.55555555555557,-21.458333333333332,133.33333333333334,-20C161.11111111111111,-18.541666666666668,172.22222222222223,36.75,200,38C227.77777777777777,39.25,238.8888888888889,-15.25,266.6666666666667,-14C294.44444444444446,-12.75,305.5555555555556,45.041666666666664,333.33333333333337,44C361.11111111111114,42.958333333333336,372.22222222222223,-14.833333333333332,400,-19C427.77777777777777,-23.166666666666668,438.8888888888889,19.625,466.6666666666667,24C494.44444444444446,28.375,505.5555555555556,-4.875,533.3333333333334,2C561.1111111111111,8.875,572.2222222222222,58.666666666666664,600,57C627.7777777777778,55.333333333333336,638.8888888888889,-1.208333333333333,666.6666666666667,-6C694.4444444444446,-10.791666666666668,707.6388888888889,30.666666666666668,733.3333333333334,34C759.0277777777778,37.333333333333336,778.1944444444445,15,790,10" transform="matrix(1,0,0,1,0,630)"></path><path d="M10,10C21.805555555555557,14.375,40.97222222222223,37.25,66.66666666666667,31C92.36111111111111,24.75,105.55555555555557,-21.458333333333332,133.33333333333334,-20C161.11111111111111,-18.541666666666668,172.22222222222223,36.75,200,38C227.77777777777777,39.25,238.8888888888889,-15.25,266.6666666666667,-14C294.44444444444446,-12.75,305.5555555555556,45.041666666666664,333.33333333333337,44C361.11111111111114,42.958333333333336,372.22222222222223,-14.833333333333332,400,-19C427.77777777777777,-23.166666666666668,438.8888888888889,19.625,466.6666666666667,24C494.44444444444446,28.375,505.5555555555556,-4.875,533.3333333333334,2C561.1111111111111,8.875,572.2222222222222,58.666666666666664,600,57C627.7777777777778,55.333333333333336,638.8888888888889,-1.208333333333333,666.6666666666667,-6C694.4444444444446,-10.791666666666668,707.6388888888889,30.666666666666668,733.3333333333334,34C759.0277777777778,37.333333333333336,778.1944444444445,15,790,10" transform="matrix(1,0,0,1,0,595)"></path><path d="M10,10C21.805555555555557,14.375,40.97222222222223,37.25,66.66666666666667,31C92.36111111111111,24.75,105.55555555555557,-21.458333333333332,133.33333333333334,-20C161.11111111111111,-18.541666666666668,172.22222222222223,36.75,200,38C227.77777777777777,39.25,238.8888888888889,-15.25,266.6666666666667,-14C294.44444444444446,-12.75,305.5555555555556,45.041666666666664,333.33333333333337,44C361.11111111111114,42.958333333333336,372.22222222222223,-14.833333333333332,400,-19C427.77777777777777,-23.166666666666668,438.8888888888889,19.625,466.6666666666667,24C494.44444444444446,28.375,505.5555555555556,-4.875,533.3333333333334,2C561.1111111111111,8.875,572.2222222222222,58.666666666666664,600,57C627.7777777777778,55.333333333333336,638.8888888888889,-1.208333333333333,666.6666666666667,-6C694.4444444444446,-10.791666666666668,707.6388888888889,30.666666666666668,733.3333333333334,34C759.0277777777778,37.333333333333336,778.1944444444445,15,790,10" transform="matrix(1,0,0,1,0,560)"></path><path d="M10,10C21.805555555555557,14.375,40.97222222222223,37.25,66.66666666666667,31C92.36111111111111,24.75,105.55555555555557,-21.458333333333332,133.33333333333334,-20C161.11111111111111,-18.541666666666668,172.22222222222223,36.75,200,38C227.77777777777777,39.25,238.8888888888889,-15.25,266.6666666666667,-14C294.44444444444446,-12.75,305.5555555555556,45.041666666666664,333.33333333333337,44C361.11111111111114,42.958333333333336,372.22222222222223,-14.833333333333332,400,-19C427.77777777777777,-23.166666666666668,438.8888888888889,19.625,466.6666666666667,24C494.44444444444446,28.375,505.5555555555556,-4.875,533.3333333333334,2C561.1111111111111,8.875,572.2222222222222,58.666666666666664,600,57C627.7777777777778,55.333333333333336,638.8888888888889,-1.208333333333333,666.6666666666667,-6C694.4444444444446,-10.791666666666668,707.6388888888889,30.666666666666668,733.3333333333334,34C759.0277777777778,37.333333333333336,778.1944444444445,15,790,10" transform="matrix(1,0,0,1,0,525)"></path><path d="M10,10C21.805555555555557,14.375,40.97222222222223,37.25,66.66666666666667,31C92.36111111111111,24.75,105.55555555555557,-21.458333333333332,133.33333333333334,-20C161.11111111111111,-18.541666666666668,172.22222222222223,36.75,200,38C227.77777777777777,39.25,238.8888888888889,-15.25,266.6666666666667,-14C294.44444444444446,-12.75,305.5555555555556,45.041666666666664,333.33333333333337,44C361.11111111111114,42.958333333333336,372.22222222222223,-14.833333333333332,400,-19C427.77777777777777,-23.166666666666668,438.8888888888889,19.625,466.6666666666667,24C494.44444444444446,28.375,505.5555555555556,-4.875,533.3333333333334,2C561.1111111111111,8.875,572.2222222222222,58.666666666666664,600,57C627.7777777777778,55.333333333333336,638.8888888888889,-1.208333333333333,666.6666666666667,-6C694.4444444444446,-10.791666666666668,707.6388888888889,30.666666666666668,733.3333333333334,34C759.0277777777778,37.333333333333336,778.1944444444445,15,790,10" transform="matrix(1,0,0,1,0,490)"></path><path d="M10,10C21.805555555555557,14.375,40.97222222222223,37.25,66.66666666666667,31C92.36111111111111,24.75,105.55555555555557,-21.458333333333332,133.33333333333334,-20C161.11111111111111,-18.541666666666668,172.22222222222223,36.75,200,38C227.77777777777777,39.25,238.8888888888889,-15.25,266.6666666666667,-14C294.44444444444446,-12.75,305.5555555555556,45.041666666666664,333.33333333333337,44C361.11111111111114,42.958333333333336,372.22222222222223,-14.833333333333332,400,-19C427.77777777777777,-23.166666666666668,438.8888888888889,19.625,466.6666666666667,24C494.44444444444446,28.375,505.5555555555556,-4.875,533.3333333333334,2C561.1111111111111,8.875,572.2222222222222,58.666666666666664,600,57C627.7777777777778,55.333333333333336,638.8888888888889,-1.208333333333333,666.6666666666667,-6C694.4444444444446,-10.791666666666668,707.6388888888889,30.666666666666668,733.3333333333334,34C759.0277777777778,37.333333333333336,778.1944444444445,15,790,10" transform="matrix(1,0,0,1,0,455)"></path><path d="M10,10C21.805555555555557,14.375,40.97222222222223,37.25,66.66666666666667,31C92.36111111111111,24.75,105.55555555555557,-21.458333333333332,133.33333333333334,-20C161.11111111111111,-18.541666666666668,172.22222222222223,36.75,200,38C227.77777777777777,39.25,238.8888888888889,-15.25,266.6666666666667,-14C294.44444444444446,-12.75,305.5555555555556,45.041666666666664,333.33333333333337,44C361.11111111111114,42.958333333333336,372.22222222222223,-14.833333333333332,400,-19C427.77777777777777,-23.166666666666668,438.8888888888889,19.625,466.6666666666667,24C494.44444444444446,28.375,505.5555555555556,-4.875,533.3333333333334,2C561.1111111111111,8.875,572.2222222222222,58.666666666666664,600,57C627.7777777777778,55.333333333333336,638.8888888888889,-1.208333333333333,666.6666666666667,-6C694.4444444444446,-10.791666666666668,707.6388888888889,30.666666666666668,733.3333333333334,34C759.0277777777778,37.333333333333336,778.1944444444445,15,790,10" transform="matrix(1,0,0,1,0,420)"></path><path d="M10,10C21.805555555555557,14.375,40.97222222222223,37.25,66.66666666666667,31C92.36111111111111,24.75,105.55555555555557,-21.458333333333332,133.33333333333334,-20C161.11111111111111,-18.541666666666668,172.22222222222223,36.75,200,38C227.77777777777777,39.25,238.8888888888889,-15.25,266.6666666666667,-14C294.44444444444446,-12.75,305.5555555555556,45.041666666666664,333.33333333333337,44C361.11111111111114,42.958333333333336,372.22222222222223,-14.833333333333332,400,-19C427.77777777777777,-23.166666666666668,438.8888888888889,19.625,466.6666666666667,24C494.44444444444446,28.375,505.5555555555556,-4.875,533.3333333333334,2C561.1111111111111,8.875,572.2222222222222,58.666666666666664,600,57C627.7777777777778,55.333333333333336,638.8888888888889,-1.208333333333333,666.6666666666667,-6C694.4444444444446,-10.791666666666668,707.6388888888889,30.666666666666668,733.3333333333334,34C759.0277777777778,37.333333333333336,778.1944444444445,15,790,10" transform="matrix(1,0,0,1,0,385)"></path><path d="M10,10C21.805555555555557,14.375,40.97222222222223,37.25,66.66666666666667,31C92.36111111111111,24.75,105.55555555555557,-21.458333333333332,133.33333333333334,-20C161.11111111111111,-18.541666666666668,172.22222222222223,36.75,200,38C227.77777777777777,39.25,238.8888888888889,-15.25,266.6666666666667,-14C294.44444444444446,-12.75,305.5555555555556,45.041666666666664,333.33333333333337,44C361.11111111111114,42.958333333333336,372.22222222222223,-14.833333333333332,400,-19C427.77777777777777,-23.166666666666668,438.8888888888889,19.625,466.6666666666667,24C494.44444444444446,28.375,505.5555555555556,-4.875,533.3333333333334,2C561.1111111111111,8.875,572.2222222222222,58.666666666666664,600,57C627.7777777777778,55.333333333333336,638.8888888888889,-1.208333333333333,666.6666666666667,-6C694.4444444444446,-10.791666666666668,707.6388888888889,30.666666666666668,733.3333333333334,34C759.0277777777778,37.333333333333336,778.1944444444445,15,790,10" transform="matrix(1,0,0,1,0,350)"></path><path d="M10,10C21.805555555555557,14.375,40.97222222222223,37.25,66.66666666666667,31C92.36111111111111,24.75,105.55555555555557,-21.458333333333332,133.33333333333334,-20C161.11111111111111,-18.541666666666668,172.22222222222223,36.75,200,38C227.77777777777777,39.25,238.8888888888889,-15.25,266.6666666666667,-14C294.44444444444446,-12.75,305.5555555555556,45.041666666666664,333.33333333333337,44C361.11111111111114,42.958333333333336,372.22222222222223,-14.833333333333332,400,-19C427.77777777777777,-23.166666666666668,438.8888888888889,19.625,466.6666666666667,24C494.44444444444446,28.375,505.5555555555556,-4.875,533.3333333333334,2C561.1111111111111,8.875,572.2222222222222,58.666666666666664,600,57C627.7777777777778,55.333333333333336,638.8888888888889,-1.208333333333333,666.6666666666667,-6C694.4444444444446,-10.791666666666668,707.6388888888889,30.666666666666668,733.3333333333334,34C759.0277777777778,37.333333333333336,778.1944444444445,15,790,10" transform="matrix(1,0,0,1,0,315)"></path><path d="M10,10C21.805555555555557,14.375,40.97222222222223,37.25,66.66666666666667,31C92.36111111111111,24.75,105.55555555555557,-21.458333333333332,133.33333333333334,-20C161.11111111111111,-18.541666666666668,172.22222222222223,36.75,200,38C227.77777777777777,39.25,238.8888888888889,-15.25,266.6666666666667,-14C294.44444444444446,-12.75,305.5555555555556,45.041666666666664,333.33333333333337,44C361.11111111111114,42.958333333333336,372.22222222222223,-14.833333333333332,400,-19C427.77777777777777,-23.166666666666668,438.8888888888889,19.625,466.6666666666667,24C494.44444444444446,28.375,505.5555555555556,-4.875,533.3333333333334,2C561.1111111111111,8.875,572.2222222222222,58.666666666666664,600,57C627.7777777777778,55.333333333333336,638.8888888888889,-1.208333333333333,666.6666666666667,-6C694.4444444444446,-10.791666666666668,707.6388888888889,30.666666666666668,733.3333333333334,34C759.0277777777778,37.333333333333336,778.1944444444445,15,790,10" transform="matrix(1,0,0,1,0,280)"></path><path d="M10,10C21.805555555555557,14.375,40.97222222222223,37.25,66.66666666666667,31C92.36111111111111,24.75,105.55555555555557,-21.458333333333332,133.33333333333334,-20C161.11111111111111,-18.541666666666668,172.22222222222223,36.75,200,38C227.77777777777777,39.25,238.8888888888889,-15.25,266.6666666666667,-14C294.44444444444446,-12.75,305.5555555555556,45.041666666666664,333.33333333333337,44C361.11111111111114,42.958333333333336,372.22222222222223,-14.833333333333332,400,-19C427.77777777777777,-23.166666666666668,438.8888888888889,19.625,466.6666666666667,24C494.44444444444446,28.375,505.5555555555556,-4.875,533.3333333333334,2C561.1111111111111,8.875,572.2222222222222,58.666666666666664,600,57C627.7777777777778,55.333333333333336,638.8888888888889,-1.208333333333333,666.6666666666667,-6C694.4444444444446,-10.791666666666668,707.6388888888889,30.666666666666668,733.3333333333334,34C759.0277777777778,37.333333333333336,778.1944444444445,15,790,10" transform="matrix(1,0,0,1,0,245)"></path><path d="M10,10C21.805555555555557,14.375,40.97222222222223,37.25,66.66666666666667,31C92.36111111111111,24.75,105.55555555555557,-21.458333333333332,133.33333333333334,-20C161.11111111111111,-18.541666666666668,172.22222222222223,36.75,200,38C227.77777777777777,39.25,238.8888888888889,-15.25,266.6666666666667,-14C294.44444444444446,-12.75,305.5555555555556,45.041666666666664,333.33333333333337,44C361.11111111111114,42.958333333333336,372.22222222222223,-14.833333333333332,400,-19C427.77777777777777,-23.166666666666668,438.8888888888889,19.625,466.6666666666667,24C494.44444444444446,28.375,505.5555555555556,-4.875,533.3333333333334,2C561.1111111111111,8.875,572.2222222222222,58.666666666666664,600,57C627.7777777777778,55.333333333333336,638.8888888888889,-1.208333333333333,666.6666666666667,-6C694.4444444444446,-10.791666666666668,707.6388888888889,30.666666666666668,733.3333333333334,34C759.0277777777778,37.333333333333336,778.1944444444445,15,790,10" transform="matrix(1,0,0,1,0,210)"></path><path d="M10,10C21.805555555555557,14.375,40.97222222222223,37.25,66.66666666666667,31C92.36111111111111,24.75,105.55555555555557,-21.458333333333332,133.33333333333334,-20C161.11111111111111,-18.541666666666668,172.22222222222223,36.75,200,38C227.77777777777777,39.25,238.8888888888889,-15.25,266.6666666666667,-14C294.44444444444446,-12.75,305.5555555555556,45.041666666666664,333.33333333333337,44C361.11111111111114,42.958333333333336,372.22222222222223,-14.833333333333332,400,-19C427.77777777777777,-23.166666666666668,438.8888888888889,19.625,466.6666666666667,24C494.44444444444446,28.375,505.5555555555556,-4.875,533.3333333333334,2C561.1111111111111,8.875,572.2222222222222,58.666666666666664,600,57C627.7777777777778,55.333333333333336,638.8888888888889,-1.208333333333333,666.6666666666667,-6C694.4444444444446,-10.791666666666668,707.6388888888889,30.666666666666668,733.3333333333334,34C759.0277777777778,37.333333333333336,778.1944444444445,15,790,10" transform="matrix(1,0,0,1,0,175)"></path><path d="M10,10C21.805555555555557,14.375,40.97222222222223,37.25,66.66666666666667,31C92.36111111111111,24.75,105.55555555555557,-21.458333333333332,133.33333333333334,-20C161.11111111111111,-18.541666666666668,172.22222222222223,36.75,200,38C227.77777777777777,39.25,238.8888888888889,-15.25,266.6666666666667,-14C294.44444444444446,-12.75,305.5555555555556,45.041666666666664,333.33333333333337,44C361.11111111111114,42.958333333333336,372.22222222222223,-14.833333333333332,400,-19C427.77777777777777,-23.166666666666668,438.8888888888889,19.625,466.6666666666667,24C494.44444444444446,28.375,505.5555555555556,-4.875,533.3333333333334,2C561.1111111111111,8.875,572.2222222222222,58.666666666666664,600,57C627.7777777777778,55.333333333333336,638.8888888888889,-1.208333333333333,666.6666666666667,-6C694.4444444444446,-10.791666666666668,707.6388888888889,30.666666666666668,733.3333333333334,34C759.0277777777778,37.333333333333336,778.1944444444445,15,790,10" transform="matrix(1,0,0,1,0,140)"></path><path d="M10,10C21.805555555555557,14.375,40.97222222222223,37.25,66.66666666666667,31C92.36111111111111,24.75,105.55555555555557,-21.458333333333332,133.33333333333334,-20C161.11111111111111,-18.541666666666668,172.22222222222223,36.75,200,38C227.77777777777777,39.25,238.8888888888889,-15.25,266.6666666666667,-14C294.44444444444446,-12.75,305.5555555555556,45.041666666666664,333.33333333333337,44C361.11111111111114,42.958333333333336,372.22222222222223,-14.833333333333332,400,-19C427.77777777777777,-23.166666666666668,438.8888888888889,19.625,466.6666666666667,24C494.44444444444446,28.375,505.5555555555556,-4.875,533.3333333333334,2C561.1111111111111,8.875,572.2222222222222,58.666666666666664,600,57C627.7777777777778,55.333333333333336,638.8888888888889,-1.208333333333333,666.6666666666667,-6C694.4444444444446,-10.791666666666668,707.6388888888889,30.666666666666668,733.3333333333334,34C759.0277777777778,37.333333333333336,778.1944444444445,15,790,10" transform="matrix(1,0,0,1,0,105)"></path><path d="M10,10C21.805555555555557,14.375,40.97222222222223,37.25,66.66666666666667,31C92.36111111111111,24.75,105.55555555555557,-21.458333333333332,133.33333333333334,-20C161.11111111111111,-18.541666666666668,172.22222222222223,36.75,200,38C227.77777777777777,39.25,238.8888888888889,-15.25,266.6666666666667,-14C294.44444444444446,-12.75,305.5555555555556,45.041666666666664,333.33333333333337,44C361.11111111111114,42.958333333333336,372.22222222222223,-14.833333333333332,400,-19C427.77777777777777,-23.166666666666668,438.8888888888889,19.625,466.6666666666667,24C494.44444444444446,28.375,505.5555555555556,-4.875,533.3333333333334,2C561.1111111111111,8.875,572.2222222222222,58.666666666666664,600,57C627.7777777777778,55.333333333333336,638.8888888888889,-1.208333333333333,666.6666666666667,-6C694.4444444444446,-10.791666666666668,707.6388888888889,30.666666666666668,733.3333333333334,34C759.0277777777778,37.333333333333336,778.1944444444445,15,790,10" transform="matrix(1,0,0,1,0,70)"></path><path d="M10,10C21.805555555555557,14.375,40.97222222222223,37.25,66.66666666666667,31C92.36111111111111,24.75,105.55555555555557,-21.458333333333332,133.33333333333334,-20C161.11111111111111,-18.541666666666668,172.22222222222223,36.75,200,38C227.77777777777777,39.25,238.8888888888889,-15.25,266.6666666666667,-14C294.44444444444446,-12.75,305.5555555555556,45.041666666666664,333.33333333333337,44C361.11111111111114,42.958333333333336,372.22222222222223,-14.833333333333332,400,-19C427.77777777777777,-23.166666666666668,438.8888888888889,19.625,466.6666666666667,24C494.44444444444446,28.375,505.5555555555556,-4.875,533.3333333333334,2C561.1111111111111,8.875,572.2222222222222,58.666666666666664,600,57C627.7777777777778,55.333333333333336,638.8888888888889,-1.208333333333333,666.6666666666667,-6C694.4444444444446,-10.791666666666668,707.6388888888889,30.666666666666668,733.3333333333334,34C759.0277777777778,37.333333333333336,778.1944444444445,15,790,10" transform="matrix(1,0,0,1,0,35)"></path></g></svg>