<svg xmlns="http://www.w3.org/2000/svg" version="1.1" xmlns:xlink="http://www.w3.org/1999/xlink" xmlns:svgjs="http://svgjs.dev/svgjs" viewBox="0 0 800 800"><defs><linearGradient x1="50%" y1="0%" x2="50%" y2="100%" id="vvvortex-grad"><stop stop-color="hsl(265, 55%, 30%)" stop-opacity="1" offset="0%"></stop><stop stop-color="hsl(265, 55%, 60%)" stop-opacity="1" offset="100%"></stop></linearGradient></defs><g stroke="url(#vvvortex-grad)" fill="none" stroke-linecap="round"><circle r="363" cx="400" cy="400" stroke-width="11" stroke-dasharray="12 13" stroke-dashoffset="25" transform="rotate(146, 400, 400)" opacity="0.05"></circle><circle r="346.5" cx="400" cy="400" stroke-width="11" stroke-dasharray="14 25" stroke-dashoffset="25" transform="rotate(294, 400, 400)" opacity="0.10"></circle><circle r="330" cx="400" cy="400" stroke-width="10" stroke-dasharray="17 26" stroke-dashoffset="25" transform="rotate(218, 400, 400)" opacity="0.14"></circle><circle r="313.5" cx="400" cy="400" stroke-width="10" stroke-dasharray="42 11" stroke-dashoffset="25" transform="rotate(229, 400, 400)" opacity="0.19"></circle><circle r="297" cx="400" cy="400" stroke-width="10" stroke-dasharray="32 34" stroke-dashoffset="25" transform="rotate(212, 400, 400)" opacity="0.23"></circle><circle r="280.5" cx="400" cy="400" stroke-width="10" stroke-dasharray="23 49" stroke-dashoffset="25" transform="rotate(86, 400, 400)" opacity="0.28"></circle><circle r="264" cx="400" cy="400" stroke-width="9" stroke-dasharray="33 14" stroke-dashoffset="25" transform="rotate(100, 400, 400)" opacity="0.32"></circle><circle r="247.5" cx="400" cy="400" stroke-width="9" stroke-dasharray="48 41" stroke-dashoffset="25" transform="rotate(217, 400, 400)" opacity="0.37"></circle><circle r="231" cx="400" cy="400" stroke-width="9" stroke-dasharray="23 12" stroke-dashoffset="25" transform="rotate(156, 400, 400)" opacity="0.41"></circle><circle r="214.5" cx="400" cy="400" stroke-width="8" stroke-dasharray="39 28" stroke-dashoffset="25" transform="rotate(287, 400, 400)" opacity="0.46"></circle><circle r="198" cx="400" cy="400" stroke-width="8" stroke-dasharray="31 53" stroke-dashoffset="25" transform="rotate(17, 400, 400)" opacity="0.50"></circle><circle r="181.5" cx="400" cy="400" stroke-width="8" stroke-dasharray="41 54" stroke-dashoffset="25" transform="rotate(257, 400, 400)" opacity="0.55"></circle><circle r="165" cx="400" cy="400" stroke-width="8" stroke-dasharray="12 46" stroke-dashoffset="25" transform="rotate(293, 400, 400)" opacity="0.59"></circle><circle r="148.5" cx="400" cy="400" stroke-width="7" stroke-dasharray="25 15" stroke-dashoffset="25" transform="rotate(219, 400, 400)" opacity="0.64"></circle><circle r="132" cx="400" cy="400" stroke-width="7" stroke-dasharray="45 16" stroke-dashoffset="25" transform="rotate(325, 400, 400)" opacity="0.68"></circle><circle r="115.5" cx="400" cy="400" stroke-width="7" stroke-dasharray="42 16" stroke-dashoffset="25" transform="rotate(238, 400, 400)" opacity="0.73"></circle><circle r="99" cx="400" cy="400" stroke-width="6" stroke-dasharray="44 43" stroke-dashoffset="25" transform="rotate(247, 400, 400)" opacity="0.77"></circle><circle r="82.5" cx="400" cy="400" stroke-width="6" stroke-dasharray="18 15" stroke-dashoffset="25" transform="rotate(212, 400, 400)" opacity="0.82"></circle><circle r="66" cx="400" cy="400" stroke-width="6" stroke-dasharray="32 47" stroke-dashoffset="25" transform="rotate(75, 400, 400)" opacity="0.86"></circle><circle r="49.5" cx="400" cy="400" stroke-width="6" stroke-dasharray="36 23" stroke-dashoffset="25" transform="rotate(253, 400, 400)" opacity="0.91"></circle><circle r="33" cx="400" cy="400" stroke-width="5" stroke-dasharray="28 21" stroke-dashoffset="25" transform="rotate(105, 400, 400)" opacity="0.95"></circle><circle r="16.5" cx="400" cy="400" stroke-width="5" stroke-dasharray="27 48" stroke-dashoffset="25" transform="rotate(351, 400, 400)" opacity="1.00"></circle></g></svg>